<svg xmlns="http://www.w3.org/2000/svg" viewBox="0 0 512 512">
  <path fill="#efefef" d="M64 0h384v512H64z"/>
  <path fill="#002833" d="M106.64 370.24h298.64v10.64H106.64z"/>
  <path fill="#c9c9c9" d="M106.64 412.88h298.64v10.64H106.64zm0 21.36h298.64v10.64H106.64zm0 21.36h298.64v10.64H106.64z"/>
  <path fill="#ff5f5f" d="M392 338.24H120c-8.8 0-16-7.2-16-16V124.88c0-8.8 7.2-16 16-16h272c8.8 0 16 7.2 16 16v197.36c0 8.8-7.2 16-16 16zM104 44.88h53.36v32H104z"/>
  <path fill="#c9c9c9" d="M189.36 44.88H408v32H189.36z"/>
  <circle cx="256" cy="176.64" r="40.4" fill="#fff"/>
  <path d="M254.08 310.96l-39.04-84.64s-40.96.56-40.96 38.24v46.4h80zm3.84 0l39.04-84.64s40.96.56 40.96 38.24v46.4h-80zM256 226.32h-28.08L256 288.56l28.08-62.24" fill="#fff"/>
</svg>
