<svg xmlns="http://www.w3.org/2000/svg" width="430.117" height="430.118" viewBox="0 0 430.117 430.118">
  <path d="M215.05 0C96.274.01 0 96.29 0 215.068c0 118.758 96.274 215.05 215.05 215.05 118.776 0 215.054-96.292 215.067-215.05C430.104 96.288 333.827.008 215.05 0zm131.77 111.506c20.982 26.645 34.12 59.638 35.777 95.668-24.278-5.153-47.217-7.66-68.602-7.66v-.006h-.158c-17.217 0-33.375 1.563-48.604 4.264-3.7-9.07-7.453-17.784-11.233-26.13 33.916-14.875 66.47-36.057 92.82-66.136zM215.05 47.28c39.576 0 75.882 13.836 104.626 36.87-21.996 26.334-51.03 45.406-82.393 58.873-22.038-42.615-43.333-73.1-57.89-91.74 11.523-2.556 23.417-4.003 35.657-4.003zm-74.11 17.49c11.647 13.756 34.964 44.013 59.868 91.253-50.65 15.077-101.65 18.62-132.51 18.61-.88 0-1.75 0-2.604-.01h-.028c-5.197 0-9.666-.08-13.397-.195 12.03-48.174 45.04-88.07 88.67-109.658zM47.267 215.068c0-.79.028-1.59.075-2.417 4.792.18 10.936.33 18.33.33h.043c33.727-.22 92.614-3.03 152.292-21.88 3.253 7.12 6.473 14.52 9.656 22.21-39.852 13.33-71.24 34.57-94.456 55.71-22.35 20.36-37.45 40.52-46.273 53.98-24.688-29.23-39.65-66.79-39.664-107.93zm167.784 167.79c-37.34 0-71.75-12.348-99.67-33.07 5.94-9.772 18.66-28.534 38.92-47.92 20.848-19.976 49.62-40.54 87.19-52.776 12.77 35.797 24.328 76.718 33.13 122.78-18.542 7.062-38.58 10.987-59.56 10.987zm94.96-29.793c-8.51-41.66-19.21-79.224-30.96-112.748 10.9-1.563 22.34-2.445 34.41-2.445h.49c20.01 0 42.005 2.487 65.85 7.906-8.253 44.365-33.95 82.574-69.783 107.287z"/>
</svg>
