<svg xmlns="http://www.w3.org/2000/svg" viewBox="0 0 512 512">
	<style>
		.st0{fill:#415E72;} .st1{fill:#CFDCE5;} .st2{fill:#AAC1CE;} .st3{fill:#8BA0AE;} .st4{fill:#FFFFFF;} .st5{fill:#E04F5F;} .st6{fill:#25B6D2;} .st7{fill:#6B6B6B;}
	</style>
	<g id="Desktop">
		<path id="Background" d="M0 345.3V52.6c.1-5.1 4.3-9.3 9.4-9.4h443.9c5.1.1 9.3 4.3 9.4 9.4v292.8L0 345.3z" class="st0"/>
		<g id="Frame">
			<path d="M462.7 345.3v37.6c-.1 5.1-4.3 9.3-9.4 9.4H9.4c-5.2-.1-9.3-4.3-9.4-9.4v-37.6h462.7zM132.3 458.8h198.1v9.4H132.3z" class="st1"/>
			<path d="M297.1 458.8H165.5l9.4-66.5h112.8z" class="st2"/>
			<path d="M287.7 392.3H174.9l-5.2 37.1 119.7-25.1z" class="st3"/>
		</g>
		<path id="Screen_Background" d="M18.8 62h425v264.6h-425z" class="st4"/>
		<g id="Code">
			<path d="M192.8 263.4h51.9v9.6h-51.9z" class="st5"/>
			<path d="M71.8 263.4H141v9.6H71.8z" class="st2"/>
			<path d="M71.8 194.2H141v9.6H71.8z" class="st6"/>
			<path d="M175.5 194.2h69.2v9.6h-69.2z" class="st7"/>
			<path d="M262 194.2h69.2v9.6H262z" class="st2"/>
			<path d="M306.4 228.8H341v9.6h-34.6z" class="st6"/>
			<path d="M227.4 228.8H262v9.6h-34.6z" class="st2"/>
			<path d="M91.4 228.8h65v9.6h-65z" class="st5"/>
			<path d="M71.8 297.9h172.9v9.6H71.8z" class="st7"/>
			<path d="M286.5 297.9h41.9v9.6h-41.9z" class="st6"/>
			<path d="M313.8 159.6h34.6v9.6h-34.6z" class="st5"/>
			<path d="M227.4 159.6H262v9.6h-34.6z" class="st6"/>
			<path d="M71.8 159.6h103.7v9.6H71.8z" class="st5"/>
			<path d="M262 90.5h86.4v9.6H262z" class="st7"/>
			<path d="M192.8 90.5h34.6v9.6h-34.6zm207.4 0h34.6v9.6h-34.6z" class="st5"/>
			<path d="M54.5 90.5h103.7v9.6H54.5z" class="st2"/>
			<path d="M279.3 125.1h69.2v9.6h-69.2z" class="st6"/>
			<path d="M210.1 125.1h34.6v9.6h-34.6z" class="st2"/>
			<path d="M37.2 125.1h103.7v9.6H37.2z" class="st7"/>
		</g>
	</g>
	<g id="Tablet">
		<path id="Base" d="M488.2 468.8H364.8c-13.1 0-23.8-10.7-23.8-23.8V184.8c0-13.1 10.7-23.8 23.8-23.8h123.4c13.1 0 23.8 10.7 23.8 23.8V445c0 13.2-10.7 23.8-23.8 23.8z" class="st0"/>
		<path id="Screen" d="M352.2 185.3h148.5v242.8H352.2z" class="st1"/>
		<circle id="Camera" cx="428.2" cy="173.2" r="2.5" class="st1"/>
	</g>
	<g id="Article_tablet">
		<path id="Panel_1_" d="M363.3 338h127v75.2h-127z" class="st4"/>
		<path id="Headline_1_" d="M377.8 349.9h98.1v3.6h-98.1z" class="st0"/>
		<path id="Panel" d="M363.3 252.5h127v75.2h-127z" class="st4"/>
		<path id="Paragraph" d="M377.8 276.6h98.1v3.6h-98.1zm0 9.3h98.1v3.6h-98.1zm0 9.3h98.1v3.6h-98.1zm0 9.3h98.1v3.6h-98.1zm0 9.2h98.1v3.6h-98.1z" class="st1"/>
		<path id="Headline" d="M377.8 264.5h98.1v3.6h-98.1z" class="st0"/>
		<path id="Header" d="M363.3 197h127v45.3h-127z" class="st5"/>
	</g>
	<g id="Phone">
		<path id="Base_1_" d="M480.6 364v87.8c0 9.4-8.4 16.9-18.8 17H256.5c-10.4 0-18.8-7.6-18.8-17V364c0-9.4 8.4-16.9 18.8-17h205.3c10.4.1 18.8 7.6 18.8 17z" class="st0"/>
		<path id="Screen_1_" d="M256.9 355.1h191.6v105.6H256.9z" class="st1"/>
		<path id="Speaker" d="M249 392.1v21.6c0 1-.8 1.8-1.8 1.8s-1.8-.8-1.8-1.8V392c0-1 .8-1.8 1.8-1.8 1 .1 1.8.8 1.8 1.9 0-.1 0-.1 0 0z" class="st1"/>
		<circle id="Camera_1_" cx="247.2" cy="423.7" r="1.8" class="st1"/>
		<path id="Home_btn" d="M472.4 407.9c0 4.6-3.7 8.4-8.4 8.4-4.6 0-8.4-3.7-8.4-8.4 0-4.6 3.7-8.4 8.4-8.4s8.4 3.8 8.4 8.4zm-15 0c0 3.7 3 6.6 6.6 6.6 3.7 0 6.6-3 6.6-6.6 0-3.7-3-6.6-6.6-6.6-3.6 0-6.6 2.9-6.6 6.6z" class="st1"/>
	</g>
	<g id="Article_phone">
		<path id="Panel_3_" d="M262.9 416.9h177.9v43.9H262.9z" class="st4"/>
		<path id="Paragraph_3_" d="M283.2 440.4h137.4v3.5H283.2zm0 9.1h137.4v3.5H283.2zm0 9.1h137.4v2.1H283.2z" class="st1"/>
		<path id="Headline_3_" d="M283.2 428.6h137.4v3.5H283.2z" class="st0"/>
		<path id="Panel_2_" d="M357.3 362h83.6v47.5h-83.6z" class="st4"/>
		<path id="Paragraph_2_" d="M365 379.4h66.1v2.4H365zm0 6.3h66.1v2.4H365zm0 6.2h66.1v2.4H365zm0 6.3h66.1v2.4H365z" class="st1"/>
		<path id="Headline_2_" d="M365 371.2h66.1v2.4H365z" class="st0"/>
		<path id="Header_1_" d="M262.9 362h81.8v47.5h-81.8z" class="st5"/>
	</g>
</svg>
