<svg xmlns="http://www.w3.org/2000/svg" width="394.667" height="328" version="1" viewBox="0 0 296 246">
  <path d="M115.3 2.6C109.6 5.4 103 12 103 14.9c0 1 .9 2.1 2 2.4 1.2.3 2 1.4 2 2.6 0 1.1.8 2.5 1.8 3 .9.5 4.4 6.4 7.7 13l5.9 12.1 2.9-2.8c1.6-1.5 6.5-6.7 11-11.5l8-8.8-6.6-6.7c-3.6-3.7-7.1-7.9-7.6-9.5-.6-1.5-1.7-2.7-2.5-2.7s-1.7-1.4-2.1-3c-.8-3.8-3.3-3.9-10.2-.4z"/>
  <path d="M169.5 2c-.3.5-.4 1.4 0 2 .3.5-.6 1.7-2 2.6-1.4.9-2.5 2.1-2.5 2.8 0 .6-6.4 7.8-14.1 16.1-7.8 8.2-21.7 23.1-31 33-16.5 17.8-16.9 18.1-27.8 23.9-6 3.2-12 7-13.4 8.5-2.2 2.3-64.8 91.3-74.2 105.3-3.3 5.1-3.7 6.3-3.3 10.6.7 7.2 4.5 13.9 12.3 21.7 13.8 13.8 36.5 21.3 46 15.1 1.3-.9 8.4-10 15.8-20.4 23.8-33.4 60.8-86.2 62.7-89.5 1-1.8 2.3-7.3 3-12.2.7-5 1.6-10.8 2.1-13.1 1-4.7 40.2-82.3 42.4-84 .8-.6 1.5-1.8 1.5-2.7 0-.9 1.1-2.4 2.5-3.3 3.4-2.2 3.2-3.4-1.5-8.7-5.9-6.6-16.4-11-18.5-7.7z"/>
  <path d="M162.1 78.7L151 100.4l2.5 15c2.2 13.4 2.8 15.5 6.1 20.4 9.2 13.9 74.9 104.9 76.8 106.4 5.4 4.4 18.4 3.2 30.5-2.8 5.3-2.6 9.7-5.9 15.1-11.3 9.2-9 13.3-16.3 13.4-23.6.1-5.6 4 .2-46.2-70.5-34.8-49-30.9-44.5-44.8-51.9-10.7-5.6-12.8-7.2-20.7-15.7-4.9-5.2-9.2-9.4-9.7-9.4-.4 0-5.8 9.8-11.9 21.7z"/>
</svg>
