<?xml version="1.0" standalone="no"?>
<!DOCTYPE svg PUBLIC "-//W3C//DTD SVG 20010904//EN"
 "http://www.w3.org/TR/2001/REC-SVG-20010904/DTD/svg10.dtd">
<svg version="1.0" xmlns="http://www.w3.org/2000/svg"
 width="914.000000pt" height="914.000000pt" viewBox="0 0 914.000000 914.000000"
 preserveAspectRatio="xMidYMid meet">
<metadata>
Created by potrace 1.11, written by Peter Selinger 2001-2013
</metadata>
<g transform="translate(0.000000,914.000000) scale(0.100000,-0.100000)"
fill="#000000" stroke="none">
<path d="M1715 6808 c-180 -14 -298 -46 -435 -119 -267 -144 -430 -388 -467
-699 -9 -71 -9 -2825 -1 -2905 35 -327 245 -610 548 -739 31 -13 76 -28 90
-31 3 0 28 -6 55 -13 78 -18 103 -22 205 -29 124 -8 1209 -7 1280 1 30 4 71 9
90 11 19 2 73 13 120 24 47 12 95 24 108 26 31 7 114 40 181 73 116 56 256
155 341 243 71 73 147 159 141 159 -3 0 -1 4 4 8 6 4 55 61 110 127 55 66 104
125 110 131 5 6 24 28 40 50 17 21 75 92 130 158 54 67 120 146 146 178 25 31
50 53 56 50 11 -8 86 -96 183 -217 35 -44 67 -82 70 -85 3 -3 35 -41 70 -85
35 -44 78 -96 94 -116 17 -20 45 -54 63 -75 18 -22 69 -84 115 -139 89 -108
187 -206 231 -233 15 -9 27 -20 27 -24 0 -3 18 -17 40 -29 22 -13 40 -26 40
-31 0 -4 6 -8 14 -8 8 0 21 -6 28 -13 38 -36 289 -136 379 -151 19 -3 45 -8
58 -10 29 -6 121 -17 181 -22 75 -6 1231 -4 1290 1 77 8 194 33 240 52 8 3 20
7 26 8 28 6 154 72 209 108 51 34 171 148 212 200 55 70 137 245 146 309 2 20
7 40 10 45 12 19 21 141 21 285 1 92 5 148 11 148 7 0 7 3 0 8 -12 9 -14 1032
-2 1032 5 0 5 5 1 12 -4 7 -9 350 -10 762 -1 413 -5 762 -8 776 -3 14 -8 43
-11 65 -2 23 -8 52 -13 65 -5 14 -10 28 -11 32 -13 66 -98 221 -155 286 -146
164 -272 248 -454 301 -143 42 -197 45 -862 45 -567 0 -744 -5 -792 -22 -13
-5 -30 -8 -38 -7 -8 1 -19 -1 -25 -4 -5 -3 -19 -7 -30 -8 -26 -4 -155 -41
-180 -53 -296 -132 -385 -204 -656 -531 -85 -102 -170 -205 -189 -229 -19 -24
-46 -57 -60 -72 -14 -16 -35 -40 -47 -56 -234 -292 -221 -279 -241 -250 -9 13
-19 25 -22 28 -3 3 -66 79 -140 170 -74 91 -137 167 -140 170 -5 4 -86 104
-127 155 -9 11 -28 34 -42 50 -14 17 -42 51 -61 75 -168 211 -310 335 -490
429 -162 84 -351 135 -545 148 -131 8 -1154 9 -1260 1z m520 -1268 c3 5 15 6
29 0 12 -4 29 -5 36 0 7 4 23 5 34 0 11 -4 32 -4 46 0 14 4 34 4 45 0 11 -4
30 -4 41 1 12 4 24 5 27 3 3 -3 27 -5 54 -5 135 3 153 2 163 -4 5 -3 10 -1 10
5 0 6 5 8 11 4 13 -8 107 -9 115 -1 3 3 19 1 35 -3 16 -5 31 -5 34 0 9 14 68
-8 90 -33 11 -13 40 -47 65 -77 25 -29 51 -59 58 -66 6 -7 12 -15 12 -17 0 -3
13 -18 28 -35 16 -16 39 -44 53 -62 13 -17 33 -41 44 -54 11 -12 35 -41 53
-63 18 -23 45 -54 58 -70 14 -15 46 -54 71 -85 25 -32 50 -58 54 -58 5 0 9 -4
9 -10 0 -11 19 -36 68 -86 17 -19 32 -37 32 -40 0 -3 6 -11 13 -18 6 -7 32
-37 57 -66 25 -30 64 -76 87 -103 l42 -50 -21 -31 c-22 -31 -148 -184 -182
-221 -10 -11 -30 -36 -44 -55 -15 -19 -29 -37 -32 -40 -7 -7 -102 -120 -126
-149 -10 -13 -29 -34 -41 -47 -13 -13 -23 -26 -23 -30 0 -4 -8 -14 -18 -23
-10 -9 -33 -36 -52 -61 -19 -24 -42 -52 -50 -60 -8 -9 -51 -60 -95 -114 -44
-54 -96 -115 -115 -136 l-36 -37 -147 1 c-81 1 -147 -3 -147 -8 0 -5 -6 -4
-12 1 -14 10 -404 10 -414 0 -3 -3 -12 -3 -20 0 -8 3 -36 6 -62 7 -26 1 -51 4
-57 8 -7 4 -9 343 -9 990 1 540 2 987 3 992 1 4 12 6 26 4 14 -3 28 -2 30 3 3
4 19 4 35 -1 17 -5 32 -5 35 0z m4703 -4 c34 1 65 -2 68 -7 8 -13 7 -1969 -1
-1977 -4 -4 -198 -7 -432 -7 -368 -1 -427 1 -442 15 -10 8 -42 44 -72 80 -29
36 -58 70 -64 76 -5 7 -24 29 -42 50 -17 22 -39 49 -50 61 -10 11 -34 40 -52
63 -19 24 -40 48 -46 54 -5 6 -41 49 -79 96 -39 47 -72 87 -76 90 -3 3 -24 28
-45 55 -22 28 -43 52 -46 55 -3 3 -44 51 -90 106 -136 165 -154 187 -157 193
-2 6 41 61 101 131 12 14 54 63 92 110 39 47 80 96 91 110 37 42 104 123 132
158 15 18 32 39 39 46 6 7 35 42 64 77 29 35 60 72 68 81 9 9 21 23 26 30 6 7
56 67 112 134 l101 121 319 -1 c175 -1 332 2 348 5 17 3 39 3 50 -1 11 -3 48
-5 83 -4z"/>
<path d="M2870 5118 c0 -4 -8 -8 -19 -8 -19 0 -80 -56 -82 -74 0 -6 -3 -20 -5
-31 -3 -11 -6 -87 -8 -170 -2 -82 -8 -162 -14 -177 -6 -14 -28 -40 -50 -58
-27 -21 -38 -38 -37 -53 1 -12 3 -27 4 -33 0 -6 15 -17 32 -25 51 -20 62 -61
65 -236 3 -174 12 -211 60 -251 28 -24 45 -29 94 -31 59 -2 63 0 63 34 0 30
-4 33 -39 33 -43 0 -70 23 -78 65 -3 18 -6 101 -7 184 0 84 -5 155 -10 159 -5
3 -9 13 -9 22 0 16 -10 26 -66 66 -14 11 -12 15 20 40 63 48 66 58 69 298 3
158 11 178 72 178 29 0 37 5 46 27 6 17 6 30 0 36 -12 12 -101 17 -101 5z"/>
<path d="M6142 5086 c-1 -32 1 -36 23 -36 14 0 26 1 28 2 9 6 50 -28 58 -50 6
-15 12 -101 13 -192 4 -187 12 -217 72 -252 l35 -21 -28 -17 c-37 -23 -62 -52
-70 -81 -3 -13 -7 -87 -9 -164 -4 -189 -10 -222 -37 -232 -30 -10 -33 -10 -62
-12 -21 -1 -25 -6 -25 -30 0 -33 15 -40 80 -35 54 4 89 29 114 79 15 32 19 69
22 195 1 85 4 162 6 170 7 28 41 72 64 81 40 15 45 82 7 96 -26 10 -61 53 -68
85 -4 15 -7 98 -8 185 -2 133 -5 163 -20 188 -31 50 -65 69 -133 73 l-61 4 -1
-36z"/>
</g>
</svg>
