<?xml version="1.0" standalone="no"?>
<!DOCTYPE svg PUBLIC "-//W3C//DTD SVG 20010904//EN"
 "http://www.w3.org/TR/2001/REC-SVG-20010904/DTD/svg10.dtd">
<svg version="1.0" xmlns="http://www.w3.org/2000/svg"
 width="520.000000pt" height="520.000000pt" viewBox="0 0 520.000000 520.000000"
 preserveAspectRatio="xMidYMid meet">
<metadata>
Created by potrace 1.11, written by Peter Selinger 2001-2013
</metadata>
<g transform="translate(0.000000,520.000000) scale(0.100000,-0.100000)"
fill="#000000" stroke="none">
<path d="M3817 3944 c-1 -1 -35 -5 -76 -8 -71 -7 -282 -56 -318 -75 -10 -5
-61 -29 -113 -53 -120 -56 -209 -114 -335 -215 -112 -91 -281 -260 -370 -373
-33 -41 -62 -77 -65 -80 -3 -3 -16 -20 -29 -37 -12 -18 -30 -33 -39 -33 -9 0
-44 35 -77 77 -84 108 -305 328 -400 399 -186 138 -339 208 -550 253 -73 16
-121 19 -250 16 -172 -4 -190 -6 -305 -37 -465 -123 -769 -483 -839 -993 -15
-114 -6 -367 18 -461 54 -218 155 -403 302 -555 69 -70 185 -163 234 -186 56
-26 75 -40 67 -48 -4 -5 -2 -5 5 -1 14 8 64 -14 58 -25 -3 -4 4 -5 15 -2 11 3
20 1 20 -4 0 -5 15 -10 33 -11 17 -1 37 -9 43 -18 9 -12 13 -12 17 -2 4 9 6
10 6 1 1 -7 8 -10 16 -6 9 3 23 -3 31 -13 9 -11 13 -13 9 -6 -7 13 11 17 19 4
3 -5 19 -7 37 -4 25 4 30 2 24 -9 -7 -11 -4 -10 10 1 20 17 20 17 41 -5 9 -8
21 -15 27 -15 7 0 6 4 -3 10 -8 5 -12 12 -8 15 3 3 13 -1 22 -10 10 -10 16
-12 16 -5 0 8 9 10 24 6 14 -3 28 -1 32 5 5 8 13 4 26 -12 10 -13 16 -17 12
-8 -3 10 0 20 7 25 7 4 10 3 5 -4 -7 -11 31 -28 41 -18 4 3 -1 6 -10 6 -24 0
-21 15 3 17 11 1 20 -2 20 -8 0 -5 5 -9 11 -9 5 0 8 4 5 9 -7 11 37 23 58 15
9 -3 13 -11 9 -17 -4 -6 -1 -7 6 -3 7 5 10 14 7 21 -5 14 11 15 33 1 10 -6 12
-5 7 2 -6 11 -3 13 19 12 3 0 19 7 35 15 17 9 35 13 41 9 6 -4 14 -2 18 4 3 5
15 12 26 14 11 1 23 7 26 12 4 5 13 5 20 0 21 -13 39 -14 39 -2 0 6 -7 8 -15
4 -8 -3 -15 -1 -15 3 0 13 28 22 35 11 4 -6 12 -10 18 -9 9 0 9 2 0 6 -7 2
-13 9 -13 14 0 6 5 7 11 4 6 -4 17 1 25 11 9 11 13 13 9 4 -4 -8 3 -4 14 8 11
13 27 25 35 26 8 1 21 8 30 15 16 13 21 6 17 -21 0 -4 7 -4 16 -1 11 4 13 8 5
11 -7 2 -12 9 -12 15 0 14 51 51 62 45 4 -1 15 7 23 20 9 12 20 20 25 17 4 -3
11 2 14 11 5 13 9 14 21 4 9 -7 18 -10 22 -6 3 3 1 6 -5 6 -22 0 -7 24 33 54
22 16 46 37 53 45 11 13 12 13 6 1 -4 -8 12 7 36 33 24 27 49 46 56 43 7 -3
11 0 8 7 -2 7 23 39 56 71 33 32 60 62 60 67 0 5 5 9 10 9 6 0 9 -5 8 -11 -2
-6 4 -14 12 -16 9 -3 11 -1 5 4 -6 4 -10 14 -9 21 1 6 2 17 3 23 0 5 5 8 10 5
5 -3 12 5 15 19 4 14 11 25 17 25 6 0 6 -6 -1 -19 -7 -14 -7 -22 0 -26 6 -4
10 -3 9 2 -8 32 37 104 69 110 5 1 50 -46 98 -105 99 -120 320 -345 404 -413
30 -24 57 -47 60 -50 13 -16 207 -140 227 -145 13 -4 20 -10 17 -15 -3 -5 1
-9 9 -9 7 0 32 -9 55 -20 22 -11 46 -20 52 -20 6 0 9 -4 6 -9 -3 -5 6 -9 20
-8 15 0 30 -6 34 -13 4 -6 10 -11 14 -10 3 1 23 -1 43 -5 27 -5 33 -9 22 -16
-9 -5 0 -6 24 -2 26 4 37 2 37 -7 0 -7 7 -10 15 -6 17 6 47 -3 41 -13 -3 -4 4
-7 14 -7 10 0 16 4 13 9 -3 5 0 7 8 5 8 -3 13 -10 12 -15 -1 -5 8 -10 20 -10
18 -2 19 0 7 8 -12 8 -9 9 10 5 14 -3 31 -6 38 -6 7 0 10 -4 7 -10 -3 -5 -1
-10 4 -10 6 0 11 5 11 10 0 6 14 10 30 10 17 0 30 -4 30 -10 0 -5 5 -10 11
-10 5 0 7 4 4 10 -3 6 1 7 9 4 9 -3 13 -11 9 -18 -3 -6 4 -2 17 9 18 15 22 16
18 4 -4 -9 -1 -16 8 -16 7 0 10 5 7 10 -4 6 0 8 9 4 9 -3 19 -3 22 1 13 12 35
10 30 -3 -3 -7 0 -16 6 -20 6 -3 10 -3 9 2 -4 25 5 30 51 28 28 -1 50 3 50 8
0 6 10 2 22 -9 22 -19 22 -19 8 0 -14 18 -13 19 4 13 10 -4 25 -2 34 5 12 10
14 10 8 1 -4 -7 -2 -13 3 -13 6 0 11 5 11 10 0 17 28 11 33 -8 3 -12 5 -11 6
6 0 13 5 20 11 17 6 -4 8 -10 6 -14 -3 -4 1 -8 9 -8 11 0 12 4 4 14 -12 14 -4
19 41 26 14 2 38 9 53 16 16 6 33 9 38 5 5 -3 9 -2 9 3 0 4 38 26 85 47 47 22
85 43 85 48 0 4 7 4 17 1 12 -5 14 -3 8 7 -5 9 -4 11 3 6 7 -4 12 -2 12 4 0 6
4 9 9 5 6 -3 13 0 18 7 18 29 114 99 125 92 7 -5 9 -2 6 8 -6 14 39 58 59 58
4 0 -1 -7 -11 -15 -11 -8 -15 -15 -9 -15 7 0 15 5 18 10 4 6 10 8 15 5 5 -3
12 0 16 7 4 7 4 10 -1 6 -4 -4 -14 -3 -22 4 -11 9 -8 17 18 44 18 18 37 30 42
27 6 -4 8 0 4 10 -3 9 4 26 19 42 13 14 24 31 24 37 0 5 7 8 15 5 8 -4 17 -2
20 4 4 5 11 7 16 4 5 -4 9 -1 9 4 0 14 -13 14 -28 -1 -9 -9 -12 -8 -12 5 0 9
5 17 10 17 6 0 10 7 10 15 0 18 11 19 30 3 8 -7 6 -3 -4 10 -17 20 -17 22 -3
22 10 0 17 5 17 11 0 5 -4 8 -9 4 -9 -5 28 74 39 85 7 7 42 103 43 118 0 7 8
10 18 7 9 -3 20 -1 24 4 3 6 0 8 -8 5 -8 -3 -18 0 -23 7 -4 7 -3 10 2 7 5 -3
18 4 29 15 l20 20 -22 -12 c-26 -13 -27 -12 -13 25 6 15 13 43 16 63 8 48 13
54 32 39 13 -11 13 -9 -2 13 -13 21 -15 35 -7 68 5 23 9 44 10 46 1 3 1 6 2 8
1 1 3 26 4 56 2 30 9 59 14 64 6 6 11 16 11 22 0 5 -5 3 -10 -5 -8 -12 -10 -9
-10 13 0 15 6 27 13 27 7 0 8 3 2 8 -14 10 -20 76 -6 68 6 -4 11 -2 11 3 0 6
-4 11 -8 11 -5 0 -9 24 -11 53 -1 28 -4 61 -8 72 -5 18 -4 19 12 5 18 -14 18
-14 1 11 -18 28 -30 73 -17 65 4 -3 8 1 8 9 0 8 -5 11 -10 8 -6 -4 -8 3 -5 15
4 13 2 20 -3 16 -6 -3 -8 6 -5 20 3 15 0 26 -6 26 -6 0 -8 9 -5 20 3 11 2 20
-3 20 -4 0 -10 9 -13 20 -3 13 -1 18 6 13 7 -3 3 4 -8 17 -12 14 -14 20 -5 15
13 -8 13 -6 2 8 -8 9 -10 22 -6 28 4 8 3 9 -4 5 -11 -6 -15 5 -11 30 0 4 -4
10 -9 13 -6 3 -12 15 -14 26 -1 11 -6 22 -9 25 -10 8 -53 94 -51 103 1 4 -3 7
-8 7 -6 0 -10 5 -10 10 0 6 -5 16 -10 23 -6 7 -29 37 -51 67 -220 302 -574
476 -982 484 -48 1 -89 1 -90 0z m-22 -483 c-4 -13 -2 -12 9 2 16 20 30 23 23
4 -6 -15 30 -16 41 -1 10 13 62 17 62 4 0 -6 -4 -8 -10 -5 -5 3 -10 1 -10 -4
0 -11 22 -10 54 4 11 5 21 3 26 -5 4 -7 13 -9 19 -5 15 9 64 -3 57 -14 -3 -4
1 -8 9 -8 8 0 12 4 9 9 -6 10 -1 10 20 2 9 -3 14 -10 11 -14 -3 -5 5 -6 17 -2
13 3 19 1 15 -5 -4 -6 4 -9 18 -7 14 1 25 -2 25 -7 0 -5 3 -9 8 -8 15 2 52
-14 52 -23 0 -5 4 -7 8 -4 9 5 84 -41 131 -79 118 -97 208 -250 247 -421 25
-110 26 -322 0 -424 -23 -96 -92 -239 -151 -312 -80 -102 -204 -185 -335 -227
-94 -29 -113 -32 -235 -36 -379 -12 -687 178 -1081 666 -42 52 -83 103 -93
114 -25 30 -36 49 -24 42 6 -4 15 6 22 21 10 24 10 25 -2 10 -31 -39 -26 -15
5 26 18 24 36 42 41 39 4 -2 7 4 7 14 0 10 21 42 48 69 26 28 48 54 50 57 1 4
11 17 22 29 10 13 26 32 35 43 9 11 13 14 9 6 -5 -9 -3 -12 4 -7 7 4 12 14 12
21 0 8 6 12 14 9 8 -3 17 0 22 7 4 8 3 10 -4 5 -15 -9 -15 7 -1 21 6 6 18 9
27 6 10 -4 13 -2 8 6 -5 7 8 28 33 53 23 22 41 37 41 32 0 -5 7 2 16 15 13 18
18 20 25 10 7 -11 9 -11 9 2 0 8 12 26 26 40 26 23 27 23 22 3 -6 -22 13 -28
29 -9 4 4 2 5 -4 1 -29 -16 -11 34 19 55 17 13 28 16 23 8 -5 -7 6 1 24 19 19
18 46 36 62 39 16 3 29 8 29 12 0 12 57 31 76 25 14 -4 15 -3 5 4 -15 11 2 27
19 17 6 -3 10 -1 10 5 0 6 5 8 11 4 6 -3 15 -1 19 6 4 7 20 13 34 13 15 0 29
3 32 8 9 15 22 10 27 -8 4 -15 5 -14 6 3 0 11 7 21 14 22 6 0 27 4 45 7 19 4
41 3 50 -1 29 -12 41 -12 36 0 -3 7 2 13 11 13 10 0 14 -6 10 -16z m65 9 c0
-5 -2 -10 -4 -10 -3 0 -8 5 -11 10 -3 6 -1 10 4 10 6 0 11 -4 11 -10z m-2700
-230 c-13 -8 -12 -10 3 -10 9 0 17 3 17 8 0 4 11 7 24 7 13 0 22 -3 19 -7 -2
-5 3 -8 11 -8 9 0 16 4 16 10 0 6 9 6 26 0 14 -6 36 -10 50 -10 13 0 24 -5 24
-11 0 -5 5 -7 10 -4 6 3 10 0 10 -7 0 -9 3 -9 10 2 7 11 10 11 10 2 0 -7 4
-11 9 -8 12 8 42 -4 36 -14 -3 -5 5 -6 17 -2 16 4 19 2 13 -8 -5 -8 -4 -11 3
-6 12 7 135 -50 140 -65 2 -5 9 -9 16 -9 68 0 551 -496 532 -546 -9 -23 -84
-121 -168 -220 -174 -205 -378 -347 -580 -404 -95 -28 -267 -34 -363 -14 -106
22 -239 92 -313 164 -62 61 -122 139 -122 159 0 6 -4 11 -9 11 -5 0 -12 7 -15
16 -4 10 -2 13 7 9 6 -4 4 0 -7 9 -10 8 -19 26 -19 40 0 14 -3 24 -7 21 -4 -2
-13 14 -19 37 -10 31 -10 43 -1 48 8 5 7 9 -4 13 -19 8 -21 33 -3 40 6 3 3 6
-8 6 -17 1 -17 3 -5 11 10 6 11 10 3 10 -7 0 -13 7 -13 16 0 8 5 12 10 9 5 -3
10 -1 10 4 0 6 -4 11 -10 11 -14 0 -12 43 3 59 9 10 9 12 0 7 -9 -5 -12 6 -11
39 0 38 3 43 15 34 11 -10 12 -9 7 5 -3 9 -10 16 -14 16 -12 0 2 54 16 63 8 4
14 13 14 20 0 7 -4 6 -10 -3 -8 -12 -10 -10 -10 8 0 13 4 21 9 17 6 -3 10 3
10 12 -1 45 13 69 31 58 8 -5 7 -11 -2 -23 -12 -15 -11 -16 5 -3 17 13 17 15
0 34 -13 15 -15 21 -5 24 6 3 12 9 12 14 0 5 7 21 16 35 14 20 19 22 33 12 14
-12 14 -11 2 5 -12 15 -11 20 4 37 14 16 21 18 27 8 6 -8 7 -5 3 10 -7 23 9
31 19 10 3 -7 3 -3 1 8 -5 18 -2 21 19 17 13 -3 27 1 31 7 5 9 1 10 -16 5 -21
-7 -22 -6 -10 8 9 11 23 15 40 12 20 -4 22 -3 7 3 -16 7 -17 10 -5 17 8 5 25
16 39 24 22 15 24 15 17 -1 -3 -10 -1 -20 5 -24 6 -4 9 -3 6 2 -7 12 9 54 21
54 5 0 7 -10 5 -22 -4 -17 -1 -15 10 7 8 17 15 26 15 20 1 -5 6 -3 11 5 9 13
11 13 20 0 8 -13 10 -12 10 3 0 9 5 17 11 17 6 0 9 -7 5 -15 -3 -8 -1 -15 4
-15 6 0 10 10 10 21 0 16 5 20 20 16 11 -3 20 -1 20 4 0 5 11 9 25 9 14 0 23
-5 21 -12 -1 -7 -1 -10 1 -5 3 4 9 5 14 2 5 -4 6 0 3 8 -3 8 2 14 11 14 10 0
14 -6 10 -16 -4 -14 -3 -14 8 0 12 16 31 23 72 26 16 2 17 0 5 -7z"/>
<path d="M3665 3449 c-4 -6 -5 -12 -2 -15 2 -3 7 2 10 11 7 17 1 20 -8 4z"/>
<path d="M3689 3443 c-12 -16 -12 -17 1 -7 8 7 24 14 35 17 19 4 19 5 -1 6
-12 0 -28 -7 -35 -16z"/>
<path d="M3544 3404 c-18 -14 -18 -14 6 -3 31 14 36 19 24 19 -6 0 -19 -7 -30
-16z"/>
<path d="M3395 3339 c-11 -16 -1 -19 13 -3 7 8 8 14 3 14 -5 0 -13 -5 -16 -11z"/>
<path d="M3334 3324 c-18 -14 -18 -15 4 -4 12 6 22 13 22 15 0 8 -5 6 -26 -11z"/>
<path d="M3344 3304 c-18 -14 -18 -15 4 -4 12 6 22 13 22 15 0 8 -5 6 -26 -11z"/>
<path d="M3303 3289 c-2 -23 3 -25 10 -4 4 8 3 16 -1 19 -4 3 -9 -4 -9 -15z"/>
<path d="M3246 3265 c-16 -12 -17 -15 -4 -15 9 0 18 7 22 15 7 18 6 18 -18 0z"/>
<path d="M3180 3211 c0 -6 4 -13 10 -16 6 -3 7 1 4 9 -7 18 -14 21 -14 7z"/>
<path d="M3130 3160 c0 -5 5 -10 10 -10 6 0 10 5 10 10 0 6 -4 10 -10 10 -5 0
-10 -4 -10 -10z"/>
<path d="M3094 3135 c-3 -8 -4 -20 -1 -27 3 -7 6 -3 6 9 1 16 6 21 16 17 8 -4
15 -4 15 -1 0 13 -31 15 -36 2z"/>
<path d="M3056 3083 c-6 -14 -5 -15 5 -6 7 7 10 15 7 18 -3 3 -9 -2 -12 -12z"/>
<path d="M2975 2999 c-11 -16 -1 -19 13 -3 7 8 8 14 3 14 -5 0 -13 -5 -16 -11z"/>
<path d="M3592 2946 c2 -29 7 -35 30 -40 31 -6 30 -2 29 -147 -1 -92 9 -134
37 -155 15 -11 15 -14 -8 -32 -24 -19 -25 -26 -27 -137 -1 -65 -4 -123 -7
-131 -3 -7 -15 -14 -28 -16 -17 -2 -23 -10 -25 -35 -3 -34 1 -37 52 -35 50 3
75 8 75 15 0 5 4 6 9 3 11 -7 23 22 15 35 -3 5 -1 9 4 9 13 0 15 41 8 160 -3
46 0 72 11 88 8 13 17 21 20 18 14 -13 39 14 37 41 -2 42 -3 43 -19 43 -25 0
-53 40 -53 76 0 19 4 37 9 40 5 3 6 11 2 17 -10 15 -12 67 -4 67 8 0 6 32 -4
79 -10 44 -55 71 -118 71 l-48 0 3 -34z"/>
<path d="M2925 2961 c3 -6 -3 -14 -12 -20 -17 -10 -17 -10 0 -11 9 0 17 2 17
4 0 2 3 11 6 20 3 9 1 16 -6 16 -6 0 -9 -4 -5 -9z"/>
<path d="M2859 2883 c-1 -5 -1 -11 0 -15 0 -5 -5 -8 -13 -8 -21 0 -41 -29 -29
-41 7 -7 15 -4 24 8 13 16 12 17 -3 4 -12 -9 -18 -10 -18 -2 0 6 12 16 26 21
14 6 23 14 19 19 -3 5 3 12 12 14 17 4 17 5 1 6 -10 0 -19 -2 -19 -6z"/>
<path d="M2790 2780 c-9 -6 -10 -10 -3 -10 6 0 15 5 18 10 8 12 4 12 -15 0z"/>
<path d="M2755 2761 c-6 -11 13 -26 22 -17 4 3 1 6 -6 6 -7 0 -9 5 -6 10 3 6
4 10 1 10 -3 0 -7 -4 -11 -9z"/>
<path d="M1120 3226 c0 -2 7 -7 16 -10 8 -3 12 -2 9 4 -6 10 -25 14 -25 6z"/>
<path d="M1195 3220 c3 -5 8 -10 11 -10 2 0 4 5 4 10 0 6 -5 10 -11 10 -5 0
-7 -4 -4 -10z"/>
<path d="M1268 3223 c7 -3 16 -2 19 1 4 3 -2 6 -13 5 -11 0 -14 -3 -6 -6z"/>
<path d="M996 3203 c-6 -14 -5 -15 5 -6 7 7 10 15 7 18 -3 3 -9 -2 -12 -12z"/>
<path d="M880 3160 c-8 -5 -10 -10 -5 -10 6 0 17 5 25 10 8 5 11 10 5 10 -5 0
-17 -5 -25 -10z"/>
<path d="M790 3120 c0 -5 5 -10 11 -10 5 0 7 5 4 10 -3 6 -8 10 -11 10 -2 0
-4 -4 -4 -10z"/>
<path d="M650 3000 c0 -5 5 -10 10 -10 6 0 10 5 10 10 0 6 -4 10 -10 10 -5 0
-10 -4 -10 -10z"/>
<path d="M612 2958 c-7 -7 -12 -17 -12 -22 0 -6 5 -3 11 7 6 9 15 14 21 11 7
-4 8 -2 4 4 -9 15 -9 15 -24 0z"/>
<path d="M1338 2945 c-37 -21 -43 -43 -43 -185 l0 -125 -32 -15 c-27 -12 -33
-21 -33 -48 0 -25 5 -35 23 -41 45 -17 50 -34 43 -134 -8 -127 9 -182 61 -192
10 -2 18 -4 18 -5 0 -9 70 -3 80 6 19 19 7 60 -17 61 -28 3 -39 21 -36 63 1
20 -1 41 -5 47 -4 6 -4 14 0 16 7 5 8 26 4 104 -1 12 -13 35 -27 52 -23 28
-24 36 -1 32 4 0 7 6 7 15 0 8 4 13 8 10 10 -6 10 -5 14 97 2 44 0 81 -4 83
-4 3 -3 16 2 30 6 14 6 23 1 20 -4 -3 -6 6 -3 19 2 14 8 22 13 19 5 -3 9 0 9
6 0 6 8 10 18 8 10 -2 17 3 17 14 0 9 3 20 7 23 4 4 4 13 1 21 -7 19 -89 18
-125 -1z"/>
<path d="M590 2910 c0 -5 5 -10 11 -10 5 0 7 5 4 10 -3 6 -8 10 -11 10 -2 0
-4 -4 -4 -10z"/>
<path d="M558 2833 c7 -3 16 -2 19 1 4 3 -2 6 -13 5 -11 0 -14 -3 -6 -6z"/>
<path d="M530 2740 c0 -5 5 -10 11 -10 5 0 7 5 4 10 -3 6 -8 10 -11 10 -2 0
-4 -4 -4 -10z"/>
<path d="M5140 2759 c0 -5 5 -7 10 -4 6 3 10 8 10 11 0 2 -4 4 -10 4 -5 0 -10
-5 -10 -11z"/>
<path d="M5142 2525 c-9 -18 -8 -26 1 -31 7 -4 9 -4 5 1 -4 4 -3 16 3 27 6 11
9 22 6 24 -2 2 -9 -7 -15 -21z"/>
<path d="M5134 2415 c-3 -8 -4 -20 -2 -27 3 -7 7 -1 10 15 6 29 1 36 -8 12z"/>
<path d="M5110 2360 c0 -5 5 -10 10 -10 6 0 10 5 10 10 0 6 -4 10 -10 10 -5 0
-10 -4 -10 -10z"/>
<path d="M5100 2291 c0 -6 4 -13 10 -16 6 -3 7 1 4 9 -7 18 -14 21 -14 7z"/>
<path d="M5093 2255 c0 -8 4 -12 9 -9 5 3 6 10 3 15 -9 13 -12 11 -12 -6z"/>
<path d="M2388 2153 c10 -4 9 -10 -5 -27 l-18 -21 22 19 c23 19 22 37 0 35 -8
0 -8 -2 1 -6z"/>
<path d="M2308 2053 c7 -3 16 -2 19 1 4 3 -2 6 -13 5 -11 0 -14 -3 -6 -6z"/>
<path d="M5030 2050 c0 -5 5 -10 11 -10 5 0 7 5 4 10 -3 6 -8 10 -11 10 -2 0
-4 -4 -4 -10z"/>
<path d="M2260 1999 c0 -5 5 -7 10 -4 6 3 10 8 10 11 0 2 -4 4 -10 4 -5 0 -10
-5 -10 -11z"/>
<path d="M5015 1999 c-11 -16 -1 -19 13 -3 7 8 8 14 3 14 -5 0 -13 -5 -16 -11z"/>
<path d="M2230 1990 c0 -5 5 -10 11 -10 5 0 7 5 4 10 -3 6 -8 10 -11 10 -2 0
-4 -4 -4 -10z"/>
<path d="M2200 1955 c-19 -22 -8 -25 13 -3 9 10 13 18 8 18 -5 0 -14 -7 -21
-15z"/>
<path d="M4990 1940 c-9 -6 -10 -10 -3 -10 6 0 15 5 18 10 8 12 4 12 -15 0z"/>
<path d="M2170 1931 c0 -6 4 -13 10 -16 6 -3 7 1 4 9 -7 18 -14 21 -14 7z"/>
<path d="M2156 1907 c3 -10 9 -15 12 -12 3 3 0 11 -7 18 -10 9 -11 8 -5 -6z"/>
<path d="M2115 1879 c-4 -6 -5 -12 -2 -15 2 -3 7 2 10 11 7 17 1 20 -8 4z"/>
<path d="M2082 1841 c-11 -7 -10 -9 3 -14 9 -4 14 -3 10 2 -3 5 1 12 7 14 7 3
9 6 3 6 -5 0 -16 -3 -23 -8z"/>
<path d="M2005 1777 c-15 -12 -16 -15 -4 -22 8 -5 11 -5 7 0 -4 4 0 14 10 21
23 18 11 18 -13 1z"/>
<path d="M4890 1780 c0 -5 5 -10 11 -10 5 0 7 5 4 10 -3 6 -8 10 -11 10 -2 0
-4 -4 -4 -10z"/>
<path d="M4860 1755 c0 -8 2 -15 4 -15 2 0 6 7 10 15 3 8 1 15 -4 15 -6 0 -10
-7 -10 -15z"/>
<path d="M1964 1748 c-4 -7 -4 -10 1 -6 4 4 15 2 24 -5 14 -11 14 -10 2 6 -16
20 -18 21 -27 5z"/>
<path d="M4825 1709 c-11 -16 -1 -19 13 -3 7 8 8 14 3 14 -5 0 -13 -5 -16 -11z"/>
<path d="M1911 1687 c-13 -21 -12 -21 5 -5 10 10 16 20 13 22 -3 3 -11 -5 -18
-17z"/>
<path d="M4797 1693 c-11 -11 -8 -20 7 -20 8 0 12 6 9 14 -6 15 -7 15 -16 6z"/>
<path d="M1856 1658 c3 -4 12 -8 20 -8 8 0 14 4 14 8 0 4 -9 8 -19 8 -11 0
-17 -4 -15 -8z"/>
<path d="M1820 1646 c0 -2 7 -6 15 -10 8 -3 15 -1 15 4 0 6 -7 10 -15 10 -8 0
-15 -2 -15 -4z"/>
<path d="M1815 1620 c3 -5 8 -10 11 -10 2 0 4 5 4 10 0 6 -5 10 -11 10 -5 0
-7 -4 -4 -10z"/>
<path d="M4736 1605 c-9 -26 -7 -32 5 -12 6 10 9 21 6 23 -2 3 -7 -2 -11 -11z"/>
<path d="M1756 1593 c-6 -15 -8 -15 -16 -3 -6 9 -10 10 -10 3 0 -19 17 -24 30
-8 7 9 11 18 8 21 -3 3 -9 -3 -12 -13z"/>
<path d="M4684 1579 c-4 -7 -3 -9 4 -5 6 3 13 -2 15 -11 4 -16 5 -16 6 -1 1
21 -15 32 -25 17z"/>
<path d="M1715 1560 c3 -5 8 -10 11 -10 2 0 4 5 4 10 0 6 -5 10 -11 10 -5 0
-7 -4 -4 -10z"/>
<path d="M4650 1540 c0 -5 5 -10 11 -10 5 0 7 5 4 10 -3 6 -8 10 -11 10 -2 0
-4 -4 -4 -10z"/>
<path d="M4625 1520 c-4 -11 -11 -17 -17 -14 -7 5 -8 2 -3 -6 6 -10 11 -9 22
5 13 19 17 35 9 35 -3 0 -8 -9 -11 -20z"/>
<path d="M1569 1493 c-13 -16 -12 -17 4 -4 9 7 17 15 17 17 0 8 -8 3 -21 -13z"/>
<path d="M1535 1490 c3 -5 8 -10 11 -10 2 0 4 5 4 10 0 6 -5 10 -11 10 -5 0
-7 -4 -4 -10z"/>
<path d="M1471 1480 c-9 -5 -4 -7 13 -7 29 0 32 2 13 10 -8 3 -20 2 -26 -3z"/>
<path d="M4555 1460 c-3 -6 1 -7 9 -4 18 7 21 14 7 14 -6 0 -13 -4 -16 -10z"/>
<path d="M1310 1446 c0 -2 7 -7 16 -10 8 -3 12 -2 9 4 -6 10 -25 14 -25 6z"/>
<path d="M4496 1441 c-3 -5 1 -11 9 -14 9 -4 12 -1 8 9 -6 16 -10 17 -17 5z"/>
<path d="M4441 1416 c-21 -12 -22 -14 -5 -20 10 -4 15 -4 11 0 -4 4 1 13 11
20 22 17 14 17 -17 0z"/>
<path d="M4394 1389 c-3 -6 -3 -13 0 -16 3 -4 6 -1 6 5 0 6 7 9 15 6 8 -4 15
-4 15 -1 0 11 -30 16 -36 6z"/>
<path d="M4327 1359 c7 -7 15 -10 18 -7 3 3 -2 9 -12 12 -14 6 -15 5 -6 -5z"/>
<path d="M4286 1343 c-6 -14 -5 -15 5 -6 7 7 10 15 7 18 -3 3 -9 -2 -12 -12z"/>
<path d="M4228 1333 c7 -3 16 -2 19 1 4 3 -2 6 -13 5 -11 0 -14 -3 -6 -6z"/>
</g>
</svg>
