<?xml version="1.0" standalone="no"?>
<!DOCTYPE svg PUBLIC "-//W3C//DTD SVG 20010904//EN"
 "http://www.w3.org/TR/2001/REC-SVG-20010904/DTD/svg10.dtd">
<svg version="1.0" xmlns="http://www.w3.org/2000/svg"
 width="520.000000pt" height="520.000000pt" viewBox="0 0 520.000000 520.000000"
 preserveAspectRatio="xMidYMid meet">
<metadata>
Created by potrace 1.11, written by Peter Selinger 2001-2013
</metadata>
<g transform="translate(0.000000,520.000000) scale(0.100000,-0.100000)"
fill="#000000" stroke="none">
<path d="M3860 3964 c0 -6 -10 -10 -22 -9 -13 1 -26 -3 -30 -9 -5 -8 -8 -7 -8
2 0 17 -39 15 -46 -3 -6 -14 -8 -13 -19 1 -11 16 -13 16 -23 -2 -7 -11 -12
-13 -12 -6 0 7 -5 10 -10 7 -6 -4 -27 -9 -48 -12 -20 -3 -46 -6 -57 -8 -11 -1
-24 -3 -28 -4 -5 0 -6 -5 -3 -10 3 -4 -6 -6 -21 -3 -15 3 -24 1 -20 -5 3 -5 0
-10 -8 -10 -8 0 -12 4 -9 9 3 4 -2 5 -10 2 -9 -3 -16 -10 -16 -16 0 -5 -4 -7
-9 -3 -5 3 -12 1 -16 -5 -4 -6 -11 -8 -16 -5 -5 4 -9 2 -9 -4 0 -6 -7 -7 -17
-4 -10 4 -14 2 -9 -5 4 -7 -1 -10 -14 -7 -12 2 -23 -2 -27 -10 -3 -8 -8 -13
-12 -11 -12 7 -52 -14 -46 -24 3 -5 0 -7 -9 -4 -16 6 -136 -56 -156 -81 -7 -8
-16 -15 -21 -15 -17 0 -138 -93 -133 -102 3 -5 0 -7 -8 -6 -7 2 -12 -3 -10
-10 1 -8 -2 -11 -8 -7 -5 3 -10 1 -10 -4 0 -6 -6 -10 -12 -8 -7 1 -12 -4 -10
-11 1 -8 -2 -11 -6 -8 -5 3 -18 -5 -28 -19 -10 -13 -22 -21 -28 -18 -5 4 -7
-1 -3 -10 3 -9 3 -16 -1 -16 -22 4 -33 -3 -29 -16 4 -8 1 -17 -5 -21 -7 -4 -8
-3 -4 4 11 18 -3 14 -25 -7 -12 -11 -18 -24 -15 -29 3 -5 -2 -9 -12 -8 -10 0
-17 -6 -16 -16 1 -11 -4 -14 -14 -11 -9 4 -13 2 -9 -3 3 -6 -3 -16 -13 -24
-10 -8 -16 -18 -13 -23 3 -6 2 -7 -4 -4 -6 4 -21 -6 -34 -21 -18 -20 -19 -23
-4 -12 11 8 -2 -7 -28 -33 -26 -26 -45 -52 -42 -57 4 -6 -1 -7 -11 -3 -11 4
-15 2 -11 -4 4 -6 0 -14 -9 -17 -10 -4 -14 -12 -10 -23 4 -10 4 -14 0 -11 -7
8 -34 -16 -34 -30 0 -6 -7 -13 -16 -16 -9 -4 -14 -13 -10 -21 8 -21 -7 -19
-24 4 -7 11 -18 17 -23 14 -6 -3 -7 -2 -4 4 4 6 -6 24 -21 42 -15 17 -35 42
-45 56 -10 14 -22 23 -28 20 -5 -3 -6 1 -3 9 6 15 -6 21 -29 17 -5 -1 -6 3 -3
7 7 11 -50 73 -59 64 -3 -4 -3 2 1 12 4 11 3 17 -2 15 -5 -3 -22 9 -39 25 -16
16 -23 26 -15 22 8 -4 6 0 -4 8 -11 9 -27 16 -35 16 -14 0 -14 1 -1 10 13 8
12 10 -3 10 -11 0 -15 4 -11 12 5 8 2 9 -9 5 -9 -3 -19 -1 -23 5 -5 7 -2 8 7
3 12 -8 12 -6 0 8 -7 9 -20 17 -28 17 -8 0 -11 5 -8 10 3 6 -1 10 -9 10 -9 0
-16 5 -16 10 0 6 -7 10 -16 10 -8 0 -13 4 -10 9 3 4 -6 13 -19 19 -14 7 -25
16 -25 22 0 5 -8 10 -18 10 -10 0 -24 9 -32 20 -8 11 -19 20 -24 20 -5 0 -19
8 -30 18 -16 13 -18 13 -11 2 6 -9 2 -8 -7 3 -10 10 -23 15 -29 11 -8 -5 -9
-3 -4 6 6 10 4 12 -9 7 -10 -4 -15 -3 -11 3 3 6 -1 10 -9 10 -9 0 -16 4 -16
10 0 5 -7 6 -17 3 -10 -4 -14 -2 -10 4 4 6 0 14 -9 17 -10 4 -13 2 -9 -7 4 -6
1 -5 -7 4 -7 9 -19 14 -25 12 -7 -3 -13 0 -13 7 0 6 -5 8 -10 5 -6 -3 -10 -1
-10 6 0 6 -8 9 -20 6 -10 -3 -20 -1 -22 5 -2 5 -14 9 -28 10 -14 1 -34 9 -44
17 -13 11 -17 11 -11 2 4 -8 -3 -6 -21 5 -21 14 -26 15 -19 4 8 -13 7 -13 -8
-1 -9 7 -17 10 -17 6 0 -4 -6 -3 -13 4 -10 8 -17 7 -27 -2 -8 -8 -11 -8 -7 -1
4 7 0 14 -7 17 -8 3 -17 1 -20 -6 -5 -9 -7 -9 -12 1 -3 6 -12 12 -20 12 -10 0
-12 -5 -8 -12 6 -9 3 -9 -9 0 -19 16 -110 25 -101 10 4 -6 -2 -5 -14 1 -26 14
-54 15 -33 2 9 -6 5 -8 -14 -8 -19 0 -23 2 -14 8 11 7 11 9 -2 9 -9 0 -19 -3
-23 -7 -10 -11 -37 -12 -30 -2 3 5 0 9 -5 9 -6 0 -11 -4 -11 -9 0 -5 -9 -7
-20 -4 -13 3 -20 0 -20 -8 0 -12 -2 -12 -9 0 -5 8 -11 9 -15 3 -3 -6 -15 -8
-26 -5 -13 3 -20 0 -20 -8 0 -11 -2 -11 -9 0 -7 12 -13 12 -24 3 -7 -7 -17 -9
-21 -5 -4 4 -11 1 -16 -7 -8 -12 -10 -12 -10 -2 0 10 -9 8 -36 -7 -19 -12 -33
-17 -30 -12 4 5 -3 7 -14 4 -11 -3 -18 -9 -15 -13 3 -5 -5 -6 -17 -2 -13 3
-19 1 -15 -5 4 -6 1 -11 -6 -10 -36 1 -57 -4 -52 -13 3 -5 0 -7 -8 -4 -8 3
-25 -5 -37 -18 -13 -13 -19 -17 -15 -9 5 9 3 12 -6 9 -8 -3 -13 -10 -12 -16 2
-6 -6 -9 -17 -7 -11 2 -20 -1 -20 -6 0 -6 -4 -7 -10 -4 -5 3 -10 1 -10 -5 0
-6 -4 -8 -10 -5 -6 3 -7 -1 -4 -10 5 -11 2 -14 -10 -9 -9 3 -16 1 -16 -5 0 -6
-4 -10 -9 -8 -5 1 -17 -7 -26 -18 -9 -11 -13 -13 -9 -5 5 10 -1 8 -16 -5 -13
-11 -31 -26 -39 -33 -61 -49 -139 -127 -135 -134 3 -4 -3 -8 -12 -8 -10 0 -14
-3 -11 -7 4 -3 -2 -12 -13 -20 -21 -15 -29 -39 -8 -27 7 4 8 3 4 -5 -4 -6 -11
-9 -16 -6 -5 3 -19 -9 -31 -27 -20 -29 -21 -31 -4 -18 11 8 5 -1 -12 -19 -18
-18 -30 -37 -27 -42 3 -5 0 -9 -6 -9 -6 0 -8 -4 -5 -10 3 -5 1 -10 -5 -10 -7
0 -9 -7 -6 -16 3 -8 2 -13 -2 -10 -5 3 -15 -10 -24 -29 -9 -21 -11 -32 -4 -29
6 3 3 -1 -8 -10 -10 -8 -16 -22 -13 -31 4 -8 2 -15 -4 -15 -6 0 -8 -7 -5 -16
3 -8 2 -12 -3 -9 -5 3 -12 1 -16 -5 -3 -5 0 -10 7 -10 10 0 10 -2 -1 -9 -7 -5
-10 -14 -7 -20 4 -6 2 -11 -4 -11 -6 0 -9 -4 -5 -9 3 -5 1 -13 -5 -16 -6 -4
-8 -15 -5 -26 4 -11 2 -19 -5 -19 -8 0 -10 -10 -8 -25 3 -14 1 -28 -4 -31 -5
-3 -7 -12 -4 -20 3 -8 0 -14 -5 -14 -7 0 -9 -9 -6 -22 4 -12 1 -29 -6 -37 -10
-12 -9 -13 3 -6 12 7 13 6 2 -7 -7 -9 -11 -37 -10 -71 2 -30 0 -53 -4 -50 -11
6 -10 -5 3 -29 8 -15 8 -19 0 -14 -15 10 -14 -7 2 -23 9 -11 9 -13 0 -7 -16 9
-16 5 -3 -29 7 -17 7 -24 0 -20 -11 7 -14 -8 -3 -18 4 -4 5 -32 4 -62 -1 -33
2 -55 8 -55 6 0 8 -12 4 -32 -4 -19 -2 -29 4 -25 6 4 9 -6 8 -23 -1 -17 2 -30
6 -30 4 0 8 -8 8 -17 1 -40 5 -52 16 -57 8 -2 10 -15 8 -30 -4 -17 -1 -26 7
-26 7 0 10 -7 6 -15 -3 -8 2 -19 12 -24 9 -6 13 -11 9 -11 -4 0 -2 -10 5 -23
7 -12 11 -26 10 -31 -4 -12 27 -58 36 -52 4 2 8 -7 9 -21 0 -15 13 -35 30 -48
15 -13 29 -28 29 -34 1 -6 2 -14 3 -18 2 -16 48 -62 55 -56 4 4 4 0 0 -10 -4
-12 -1 -17 9 -17 9 0 19 -5 23 -12 5 -7 3 -8 -7 -3 -8 5 11 -17 43 -48 31 -31
60 -57 65 -57 5 0 15 -9 23 -19 7 -11 17 -18 22 -15 4 3 8 -1 8 -9 0 -8 7 -18
16 -21 12 -5 14 -3 8 7 -5 7 4 -1 19 -18 16 -16 26 -23 22 -15 -4 8 2 5 13 -7
11 -13 27 -23 35 -23 9 0 18 -6 20 -12 4 -9 6 -9 6 2 1 10 6 7 17 -8 9 -13 24
-22 34 -20 10 2 27 -5 39 -16 11 -10 32 -19 45 -19 14 1 24 -3 21 -7 -3 -4 4
-10 15 -13 13 -3 18 -1 13 6 -3 7 3 4 15 -7 12 -10 28 -16 37 -13 8 4 15 2 15
-3 0 -6 5 -10 11 -10 5 0 7 5 3 11 -3 6 5 3 20 -6 14 -10 26 -14 26 -11 0 4
10 2 21 -5 12 -6 19 -7 16 -2 -4 5 0 10 8 10 8 0 12 -4 10 -8 -3 -4 8 -9 25
-11 16 -2 26 0 23 5 -3 5 4 4 15 -2 25 -13 35 -14 28 -3 -7 11 31 8 41 -3 5
-4 2 -5 -4 -1 -7 4 -13 2 -13 -4 0 -7 7 -9 16 -6 9 3 18 6 20 6 3 0 3 3 1 8
-3 4 7 8 21 8 15 1 21 -1 15 -3 -23 -8 -14 -18 16 -18 16 0 27 4 24 9 -3 4 17
7 45 5 41 -3 48 -1 44 11 -5 13 -4 13 13 0 10 -8 16 -10 12 -4 -10 17 21 26
45 13 18 -9 20 -9 15 4 -4 12 -1 14 16 11 27 -7 36 -7 62 0 11 2 24 5 29 5 4
1 6 8 2 16 -7 20 -1 19 20 -2 16 -16 16 -16 10 4 -7 22 6 26 32 9 7 -4 16 -5
19 -2 4 3 1 6 -5 6 -7 0 -12 4 -12 10 0 5 8 6 17 3 13 -5 15 -2 10 13 -7 18
-7 18 7 0 13 -16 17 -17 36 -3 12 9 30 13 39 10 12 -3 12 -2 -2 7 -15 9 -22 8
-38 -6 -10 -9 -19 -13 -19 -8 1 11 50 48 50 37 0 -5 9 -9 20 -10 11 -1 19 1
16 5 -2 4 17 22 42 41 25 19 42 29 39 23 -4 -5 -1 -12 7 -15 10 -4 13 1 11 19
-2 23 -1 24 16 8 17 -15 24 -13 20 9 0 4 4 7 10 7 5 0 7 6 3 13 -5 8 -2 7 9
-2 10 -8 20 -11 24 -7 3 3 2 6 -4 6 -6 0 -14 8 -18 18 -5 14 -4 15 6 5 17 -17
29 -16 29 2 0 8 5 15 11 15 5 0 7 6 3 13 -5 8 -2 8 9 -2 15 -12 17 -11 17 3 0
9 8 16 20 16 11 0 20 4 20 10 0 5 -8 7 -17 3 -10 -3 -15 -3 -11 1 3 4 14 9 25
11 10 1 17 7 16 12 -1 6 8 9 21 8 19 -2 23 1 19 16 -3 10 0 19 6 19 6 0 11 -4
11 -10 0 -5 5 -10 10 -10 7 0 7 6 1 18 -6 11 -6 24 0 33 5 8 9 9 9 3 0 -7 7
-15 16 -18 8 -3 12 -2 9 4 -3 5 4 14 15 20 11 6 20 18 20 26 0 11 6 14 23 9
21 -5 20 -5 -3 10 -14 9 -17 14 -8 11 11 -3 19 2 23 14 8 25 32 44 32 25 0 -8
-5 -11 -10 -8 -6 3 -7 1 -3 -6 11 -18 25 -4 22 24 -2 13 0 22 5 20 7 -5 16 3
47 39 6 9 20 13 30 10 14 -5 14 -4 2 4 -8 6 -19 8 -25 5 -5 -4 5 9 23 28 25
26 35 31 41 20 5 -8 11 -9 15 -3 3 5 -1 13 -10 16 -8 3 -12 11 -9 16 5 8 11 7
20 0 11 -10 13 -8 10 9 -2 12 1 20 8 18 6 -1 11 3 12 10 0 6 4 15 9 20 5 5 6
2 2 -7 -4 -8 0 -6 8 4 15 18 16 18 16 2 0 -9 3 -15 8 -13 10 6 42 -30 34 -39
-4 -4 1 -4 11 -1 11 4 16 3 12 -3 -3 -6 -1 -10 4 -10 6 0 10 -3 10 -7 -3 -20
2 -34 11 -28 6 3 10 2 10 -3 0 -5 10 -14 23 -21 18 -9 18 -10 2 -6 -17 5 -16
1 7 -22 15 -15 40 -43 54 -61 14 -17 31 -29 36 -25 7 3 8 1 4 -5 -4 -7 -3 -12
3 -12 5 0 13 -9 16 -20 3 -11 11 -20 16 -20 6 0 7 6 3 13 -4 7 -3 9 2 4 5 -5
9 -12 9 -16 0 -11 58 -66 67 -64 4 2 4 -5 1 -14 -5 -13 -2 -15 11 -10 14 6 17
3 12 -9 -5 -12 -2 -15 9 -10 9 3 14 2 11 -2 -8 -13 62 -75 75 -66 7 4 9 3 6
-3 -4 -6 5 -21 19 -34 22 -21 24 -21 18 -4 -3 11 4 5 15 -14 12 -18 24 -31 27
-28 3 3 19 -9 36 -26 16 -18 27 -26 23 -19 -3 6 -1 12 4 12 6 0 11 -7 11 -15
0 -13 13 -20 24 -12 2 1 14 -9 26 -23 12 -14 19 -18 15 -10 -5 12 -4 12 7 -1
19 -23 61 -48 86 -52 12 -2 25 -7 29 -12 5 -4 2 -5 -6 0 -10 6 -12 4 -7 -4 5
-7 14 -10 22 -7 8 3 14 1 14 -4 0 -6 7 -10 15 -10 8 0 15 -6 15 -12 0 -10 2
-10 9 0 7 11 9 11 14 -2 4 -10 13 -13 23 -9 13 5 15 3 9 -7 -6 -10 -3 -12 13
-8 12 4 20 3 17 -2 -3 -4 2 -11 11 -14 8 -3 13 -2 10 2 -3 5 1 9 8 9 9 0 12
-7 8 -16 -5 -14 -4 -14 13 -1 11 9 16 10 11 3 -7 -13 0 -16 36 -16 10 0 15 -4
11 -10 -4 -6 2 -8 15 -5 12 4 22 2 22 -3 0 -4 7 -5 17 -2 10 4 14 2 10 -4 -3
-5 0 -10 8 -10 8 0 15 5 15 11 0 5 6 2 13 -8 10 -14 23 -17 45 -14 18 3 29 0
25 -5 -4 -6 5 -8 21 -5 14 3 29 1 32 -4 3 -5 13 -3 22 4 12 10 14 10 8 0 -5
-9 3 -12 31 -13 21 0 55 -2 75 -3 21 -2 35 1 32 5 -2 4 0 11 6 14 6 4 10 3 9
-2 -5 -27 2 -34 17 -19 8 9 20 13 25 10 22 -13 59 -11 59 3 0 8 5 11 10 8 6
-4 8 -10 5 -15 -3 -5 0 -12 6 -16 7 -4 9 -3 5 4 -4 6 1 10 11 10 10 -1 41 4
70 11 29 7 58 9 64 5 8 -5 11 -2 7 7 -4 11 5 14 46 14 52 0 80 10 70 26 -3 5
2 6 11 3 13 -5 13 -9 3 -23 -12 -14 -11 -15 5 -2 10 8 16 20 13 27 -5 12 18
13 30 1 14 -13 26 -7 15 7 -9 11 -9 16 0 22 8 4 9 3 5 -4 -4 -7 -4 -12 1 -13
4 0 16 -2 25 -4 12 -2 15 3 13 18 -4 21 -4 22 10 3 15 -19 15 -19 15 1 0 12 5
25 12 29 6 4 8 3 5 -3 -4 -6 1 -13 11 -15 11 -3 19 0 19 8 0 7 -5 10 -10 7 -6
-3 -7 -1 -3 6 6 9 11 9 22 0 12 -10 13 -9 8 5 -5 14 -3 15 20 6 15 -5 25 -6
22 -1 -4 5 0 12 6 15 7 3 2 3 -12 0 -23 -5 -24 -4 -5 7 11 6 25 18 31 26 10
11 13 11 18 -2 3 -9 2 -13 -4 -10 -6 3 -10 1 -10 -5 0 -7 7 -9 16 -6 9 3 19 6
22 6 4 0 1 4 -7 9 -8 5 -10 14 -6 21 6 10 11 9 20 -4 11 -15 13 -15 19 -1 3 9
2 14 -2 11 -5 -3 -9 1 -9 8 0 8 7 12 15 8 10 -3 13 -1 8 6 -3 6 -1 14 5 18 7
4 9 3 5 -4 -3 -6 -2 -13 4 -17 5 -3 10 1 10 9 0 9 6 13 13 10 8 -3 20 3 28 12
9 12 10 15 2 10 -7 -4 -13 -2 -13 3 0 6 7 11 15 11 8 0 14 5 13 12 -4 15 24
18 34 3 4 -5 8 0 8 12 0 17 -4 21 -17 17 -15 -5 -16 -4 -3 5 9 6 18 7 24 1 13
-13 26 -13 26 1 0 5 -4 7 -10 4 -5 -3 -10 -3 -10 0 0 10 27 35 38 35 15 0 23
28 9 33 -6 2 -4 6 6 10 9 3 19 1 23 -5 4 -6 3 -8 -2 -5 -5 3 -10 -3 -10 -14 0
-18 2 -19 12 -4 7 9 9 26 6 38 -5 19 -3 20 10 9 13 -10 18 -10 24 -1 4 8 3 9
-4 5 -7 -4 -12 -2 -12 3 0 6 5 11 10 11 6 0 10 7 10 16 0 11 5 14 17 10 15 -6
14 -4 -2 14 -18 20 -18 21 0 14 13 -5 16 -4 11 4 -4 7 -2 12 3 12 6 0 11 -6
11 -12 0 -9 3 -8 9 2 6 8 7 19 3 25 -14 22 -9 32 14 29 13 -1 23 1 23 4 -1 4
0 9 1 12 1 3 4 18 6 33 4 22 2 27 -8 21 -8 -4 -10 -3 -5 2 5 5 12 9 16 9 4 0
15 8 25 18 10 9 13 17 7 17 -6 0 -11 5 -11 11 0 6 6 9 14 6 21 -8 34 13 29 46
-2 17 0 26 6 23 5 -4 13 -1 17 5 4 8 3 9 -4 5 -15 -9 -15 -3 0 29 10 22 9 28
-3 36 -10 8 -7 8 11 3 14 -3 22 -3 18 1 -4 4 -3 16 2 26 8 13 6 19 -8 22 -13
4 -11 5 6 6 12 0 22 6 22 12 0 5 -4 8 -9 4 -5 -3 -12 -1 -15 4 -4 5 -2 12 4
16 6 4 7 11 4 17 -4 6 -2 8 4 4 6 -3 13 -2 17 4 3 5 2 10 -3 10 -5 0 -9 7 -9
15 0 11 3 12 14 3 11 -9 12 -7 5 13 -11 32 -10 48 6 58 15 9 26 61 13 61 -6 0
-8 -9 -6 -20 2 -11 0 -22 -4 -24 -12 -8 -7 44 5 52 17 11 22 35 12 61 -7 20
-6 22 9 17 17 -6 17 -5 0 8 -17 13 -17 14 0 21 16 6 16 8 3 18 -8 7 -16 18
-18 26 -3 12 -1 12 14 0 16 -13 16 -12 6 8 -14 25 -15 36 -4 29 13 -8 7 51 -7
68 -12 14 -12 16 5 10 18 -7 18 -7 0 15 -14 15 -15 20 -5 16 12 -4 14 3 11 35
-3 24 -8 37 -15 33 -6 -4 -7 -1 -2 7 13 21 11 64 -3 79 -9 9 -10 17 -3 24 7 7
5 15 -7 24 -9 8 -11 12 -4 8 6 -3 12 -1 12 4 0 6 -6 11 -12 11 -9 0 -8 4 2 10
9 6 11 10 3 10 -7 0 -10 7 -6 17 5 12 3 14 -8 8 -11 -7 -11 -5 1 10 14 17 13
18 -4 12 -15 -6 -17 -5 -8 6 12 14 5 57 -8 57 -5 0 -6 10 -2 22 4 15 2 19 -7
13 -10 -6 -11 -2 -6 15 5 17 4 21 -6 15 -9 -6 -11 -3 -6 8 4 10 1 17 -5 17 -6
0 -8 3 -5 7 4 3 1 13 -6 21 -10 13 -9 14 1 8 10 -6 10 -2 1 18 -7 14 -17 23
-22 19 -6 -4 -8 0 -4 10 4 10 1 17 -5 17 -6 0 -8 3 -5 6 3 4 1 16 -5 28 -7 11
-11 25 -10 30 2 5 -4 6 -13 2 -10 -3 -14 -2 -10 5 4 6 -1 19 -11 31 -10 11
-19 27 -19 36 0 9 -5 17 -12 17 -6 0 -15 4 -20 9 -5 5 -3 6 5 2 6 -4 12 -2 12
3 0 6 -4 11 -9 11 -5 0 -11 9 -14 21 -3 12 -10 18 -16 14 -7 -4 -8 0 -4 11 4
11 2 15 -4 11 -5 -4 -15 5 -21 18 -7 14 -16 25 -22 25 -5 0 -10 7 -10 15 0 8
-8 15 -17 15 -9 0 -14 3 -10 6 9 9 -36 55 -50 50 -7 -3 -10 1 -7 8 3 7 -2 19
-11 26 -8 7 -15 10 -15 7 0 -3 -11 4 -24 16 -41 38 -54 46 -60 40 -3 -4 -6 2
-6 11 0 13 -6 17 -20 13 -11 -3 -18 -1 -15 3 3 5 -4 14 -15 20 -11 6 -20 7
-20 3 0 -4 -7 3 -16 15 -8 12 -21 22 -27 22 -7 0 -6 -4 3 -10 11 -7 12 -10 2
-10 -8 0 -16 9 -19 20 -3 11 -10 17 -15 14 -5 -3 -18 2 -28 11 -11 10 -31 18
-44 18 -15 0 -23 4 -19 10 4 6 -2 8 -15 5 -12 -4 -20 -3 -17 1 2 5 -7 13 -21
20 -20 9 -24 9 -18 -1 6 -10 5 -10 -8 0 -8 7 -24 9 -33 5 -13 -4 -16 -3 -11 5
6 11 -19 18 -46 13 -5 0 -8 5 -8 12 0 8 -4 7 -10 -3 -8 -12 -10 -12 -10 -1 0
8 -7 11 -20 8 -11 -3 -18 -2 -15 3 3 4 -11 10 -29 12 -19 2 -32 0 -30 -4 3 -4
0 -8 -5 -8 -6 0 -11 5 -11 11 0 5 -4 8 -9 5 -5 -4 -12 0 -14 6 -4 10 -6 9 -6
-1 -1 -11 -4 -11 -18 0 -9 8 -14 9 -10 3 3 -6 0 -11 -8 -11 -8 0 -12 3 -10 7
3 4 -12 8 -33 8 -20 1 -49 3 -65 5 -15 2 -30 0 -33 -5 -4 -6 -10 -5 -15 3 -5
8 -9 9 -9 3z m-72 -496 c-4 -14 120 -19 140 -5 7 6 12 6 12 0 0 -5 9 -9 20
-10 13 -1 18 2 13 10 -3 7 3 3 15 -7 12 -11 22 -14 22 -8 0 7 5 12 11 12 5 0
7 -6 3 -12 -5 -8 -2 -8 10 1 15 12 17 12 14 0 -2 -10 7 -14 34 -14 20 0 34 -3
32 -6 -2 -4 3 -10 12 -13 8 -3 12 -2 9 4 -3 6 -1 10 4 10 6 0 11 -5 11 -11 0
-6 7 -8 16 -5 8 3 13 2 10 -3 -3 -5 1 -12 10 -15 10 -4 13 -2 9 7 -4 6 0 4 8
-6 11 -14 16 -15 20 -5 4 8 6 7 6 -4 1 -16 25 -24 54 -19 5 1 6 -3 2 -9 -3 -5
6 -16 22 -22 15 -7 35 -20 45 -28 40 -35 53 -45 60 -42 5 1 8 -2 8 -6 0 -11
35 -53 41 -49 2 1 3 0 2 -2 -6 -9 19 -41 28 -36 5 4 9 3 8 -2 -4 -15 13 -43
22 -37 5 3 6 -2 3 -10 -4 -9 1 -18 10 -22 9 -3 13 -10 10 -16 -3 -5 5 -21 17
-35 13 -15 19 -23 12 -20 -8 5 -8 1 0 -17 8 -17 14 -21 20 -13 5 7 6 2 2 -10
-7 -26 3 -66 14 -58 5 2 6 -7 3 -20 -2 -15 0 -25 7 -25 7 0 9 -9 5 -25 -4 -15
-2 -25 5 -25 6 0 8 -7 5 -15 -4 -8 -3 -23 1 -32 13 -30 15 -64 3 -57 -7 4 -7
0 0 -13 6 -11 8 -30 5 -41 -3 -12 0 -28 6 -36 7 -8 8 -17 3 -20 -5 -3 -8 -17
-7 -31 2 -14 0 -25 -4 -25 -4 0 -8 -7 -8 -15 0 -8 5 -15 11 -15 8 0 8 -2 0 -8
-12 -8 -27 -55 -15 -47 4 2 8 -2 8 -10 0 -8 -4 -12 -9 -8 -6 3 -9 -3 -7 -13 1
-11 -3 -30 -8 -44 -6 -14 -9 -28 -6 -32 2 -5 -1 -8 -8 -8 -6 0 -9 -8 -6 -20 3
-11 1 -18 -4 -14 -5 3 -9 -4 -9 -16 0 -12 -4 -18 -10 -15 -6 3 -7 -1 -4 -9 4
-9 1 -16 -6 -16 -6 0 -10 -6 -7 -12 2 -7 -4 -20 -13 -28 -9 -8 -20 -28 -24
-43 -4 -17 -11 -25 -18 -21 -7 5 -9 2 -5 -9 4 -12 2 -14 -11 -10 -9 3 -14 3
-10 -1 3 -4 -17 -30 -45 -58 -29 -28 -46 -48 -38 -43 10 5 12 4 7 -4 -4 -6
-11 -9 -16 -6 -5 3 -15 -3 -22 -12 -7 -10 -20 -19 -28 -21 -8 -2 -16 -8 -18
-13 -2 -5 -10 -9 -18 -9 -9 0 -12 -4 -9 -10 4 -6 -1 -7 -11 -3 -12 4 -15 3
-10 -6 4 -6 4 -11 -1 -10 -23 4 -43 -2 -38 -12 4 -6 1 -10 -6 -8 -32 4 -50 -1
-43 -13 4 -7 3 -8 -5 -4 -14 9 -53 -2 -46 -13 2 -5 -12 -6 -31 -4 -20 2 -33 0
-31 -4 3 -5 -22 -10 -56 -11 -34 -2 -65 -8 -69 -15 -6 -9 -8 -9 -8 1 0 6 -7
12 -15 12 -8 0 -15 -6 -16 -12 0 -10 -2 -10 -6 0 -4 10 -8 10 -21 0 -10 -8
-13 -9 -9 -1 5 8 -2 11 -21 11 -16 -1 -34 2 -41 6 -6 4 -11 2 -11 -5 0 -8 -4
-8 -12 -1 -7 5 -25 8 -40 6 -16 -1 -28 2 -28 7 0 5 -13 9 -28 9 -15 0 -33 5
-40 12 -9 9 -12 9 -12 -1 0 -9 -4 -8 -15 3 -9 8 -22 13 -30 10 -8 -4 -15 -1
-15 6 0 6 -4 9 -9 6 -5 -3 -15 1 -22 10 -8 9 -21 13 -35 10 -16 -4 -31 2 -53
25 -17 17 -35 28 -39 25 -5 -3 -16 4 -26 15 -9 12 -24 18 -32 15 -9 -4 -18 3
-24 19 -5 14 -17 25 -27 25 -10 0 -25 5 -33 11 -13 9 -12 10 3 5 11 -3 16 -2
12 4 -3 6 -13 10 -21 10 -8 0 -14 5 -14 11 0 5 -4 8 -9 5 -5 -3 -12 1 -15 10
-3 9 -11 12 -18 8 -7 -4 -10 -4 -6 1 9 10 -19 38 -31 30 -5 -3 -13 0 -17 6 -4
8 -3 9 4 5 7 -4 12 -3 12 2 0 5 -9 12 -21 15 -12 3 -18 10 -14 16 3 6 -1 11
-10 11 -10 0 -13 5 -9 12 5 8 2 9 -12 4 -10 -4 -16 -4 -12 -1 9 10 -24 45 -35
38 -6 -3 -7 -1 -3 5 4 7 2 12 -3 12 -6 0 -11 7 -11 16 0 8 -4 13 -9 10 -5 -3
-12 1 -15 10 -3 8 -11 12 -16 9 -6 -4 -10 -3 -9 2 3 20 -2 34 -11 28 -5 -3
-10 1 -10 9 0 9 -4 16 -9 16 -5 0 -13 9 -16 20 -3 11 -11 20 -16 20 -6 0 -7
-5 -3 -12 4 -7 3 -8 -5 -4 -6 4 -9 12 -6 17 4 5 1 9 -6 9 -7 0 -9 3 -6 7 4 3
-4 16 -17 28 -13 12 -27 31 -30 43 -4 11 -14 26 -24 34 -15 12 -15 10 1 -17
l18 -30 -20 24 c-12 13 -21 32 -21 42 0 10 -6 19 -13 19 -8 0 -19 12 -25 26
-7 14 -16 23 -20 20 -5 -3 -9 0 -10 7 -9 57 -9 78 -2 82 5 3 12 0 16 -6 5 -8
3 -9 -6 -4 -9 5 -11 4 -6 -4 11 -17 28 -2 17 16 -11 21 16 53 41 48 10 -2 16
0 13 5 -3 4 1 11 7 14 7 3 3 3 -10 0 -23 -6 -23 -5 -5 15 9 12 22 21 28 21 5
0 3 -5 -5 -10 -13 -8 -12 -10 3 -10 20 0 22 11 5 29 -10 11 -10 13 0 7 11 -7
17 6 12 29 -1 6 4 4 11 -2 16 -16 29 -17 29 -2 0 5 -4 7 -10 4 -5 -3 -10 -1
-10 4 0 6 4 11 10 11 5 0 9 6 7 13 -1 6 5 11 15 9 12 -2 15 3 12 20 -2 13 -2
17 2 11 3 -7 10 -13 15 -13 6 0 8 4 4 9 -3 5 -1 12 4 16 6 3 7 13 4 23 -6 16
-6 16 11 0 23 -23 23 -23 20 12 -2 26 0 29 12 19 12 -10 12 -14 2 -20 -7 -5
-8 -9 -2 -9 18 0 24 12 13 26 -8 9 -7 18 1 31 9 14 10 15 6 1 -2 -9 -2 -19 1
-22 9 -9 44 25 37 35 -3 5 -1 9 5 9 6 0 7 8 4 18 -6 15 -5 15 10 3 10 -8 20
-11 24 -7 3 3 2 6 -4 6 -6 0 -14 7 -17 16 -5 14 -4 15 9 4 12 -10 15 -10 15 4
0 10 5 14 10 11 6 -4 7 -11 4 -17 -4 -7 -2 -8 4 -4 9 5 9 13 1 27 -6 12 -8 23
-5 27 3 3 6 1 6 -5 0 -6 7 -13 15 -17 12 -4 13 -2 5 13 -8 17 -6 19 15 17 15
-2 22 1 18 7 -4 6 0 8 8 5 10 -4 15 1 16 14 1 11 7 26 13 33 13 16 43 9 33 -8
-3 -6 -1 -7 6 -3 9 6 9 11 -1 24 -11 13 -11 14 1 7 11 -6 13 -4 8 8 -4 11 -2
14 8 10 8 -3 12 -10 8 -16 -4 -6 -1 -7 6 -3 7 5 10 14 7 22 -3 8 -1 14 4 14 6
0 10 -6 10 -12 0 -7 9 2 20 20 19 31 40 43 40 21 0 -5 -4 -8 -9 -4 -5 3 -12 1
-15 -4 -4 -5 2 -8 11 -7 11 2 18 12 17 25 0 11 2 19 4 16 3 -3 12 1 20 8 10 8
13 8 9 1 -4 -7 0 -14 7 -17 10 -4 14 0 11 13 -3 13 1 17 11 13 7 -3 11 -10 7
-16 -3 -6 -1 -7 6 -3 9 6 9 12 -1 24 -7 10 -8 14 -4 10 5 -4 16 -2 24 5 13 10
15 9 9 -7 -6 -15 -5 -17 6 -8 8 7 16 9 19 6 3 -2 8 2 11 10 4 11 1 13 -11 10
-14 -5 -14 -4 -3 4 9 6 23 7 37 2 19 -8 22 -6 17 8 -6 15 -5 15 10 3 15 -12
17 -12 11 4 -6 14 -4 16 7 10 16 -10 50 -14 45 -6 -2 3 8 15 23 26 20 15 23
15 12 2 -17 -21 -8 -22 24 -1 15 10 25 12 25 5 0 -6 -5 -11 -12 -11 -6 0 -8
-3 -4 -7 4 -5 14 1 22 11 16 23 54 32 54 14 0 -8 7 -6 17 5 20 20 24 21 21 5z
m-2578 -224 c0 -8 -19 -13 -24 -6 -3 5 1 9 9 9 8 0 15 -2 15 -3z m-145 -14
c-3 -5 -2 -10 4 -10 5 0 13 5 16 10 3 6 12 10 18 9 9 0 9 -2 0 -6 -7 -2 -13
-8 -13 -11 0 -10 59 -7 68 3 4 5 1 5 -7 0 -9 -5 -12 -4 -7 3 4 8 15 8 31 2 14
-5 25 -7 25 -4 0 2 10 -1 23 -7 19 -11 20 -10 10 3 -10 12 -10 14 5 13 9 -1
28 -7 42 -12 15 -7 32 -7 42 -2 11 6 19 5 24 -3 5 -7 3 -8 -6 -3 -8 5 -11 4
-7 -2 4 -6 18 -9 32 -8 14 2 25 0 25 -5 0 -4 9 -10 20 -13 11 -3 18 -1 15 3
-3 4 4 6 15 3 11 -3 17 -10 13 -16 -4 -6 2 -8 15 -5 13 4 23 0 26 -9 4 -9 14
-13 26 -10 11 3 18 0 17 -6 -1 -6 8 -13 21 -15 12 -2 22 -8 22 -13 0 -5 6 -9
14 -9 8 0 17 -7 20 -16 4 -9 13 -14 21 -10 8 3 15 1 15 -5 0 -6 5 -7 10 -4 6
4 9 1 8 -7 -2 -7 5 -12 14 -12 11 1 14 -4 11 -14 -4 -10 -2 -13 5 -8 7 4 12 3
12 -3 0 -5 9 -13 20 -16 11 -4 17 -11 14 -17 -5 -8 -1 -9 10 -5 10 4 15 3 11
-3 -6 -9 7 -14 27 -11 4 0 4 -7 1 -17 -3 -9 -2 -14 2 -10 5 5 15 -1 22 -12 8
-11 19 -17 25 -14 7 4 8 2 4 -4 -4 -7 -2 -12 4 -12 6 0 9 -4 6 -9 -3 -5 1 -12
10 -15 10 -4 13 -2 8 6 -4 7 -3 8 4 4 7 -4 12 -15 12 -25 0 -10 11 -23 25 -29
14 -7 29 -20 32 -29 9 -23 29 -44 36 -37 2 3 7 -7 11 -21 4 -14 13 -25 21 -25
7 0 17 -5 21 -12 5 -7 2 -8 -7 -3 -8 4 2 -7 21 -24 19 -18 29 -30 23 -26 -9 4
-11 1 -7 -9 3 -9 10 -13 15 -10 5 3 9 0 9 -5 0 -6 13 -22 28 -36 30 -26 37
-70 11 -70 -7 0 -15 -9 -17 -20 -2 -11 -9 -24 -14 -30 -8 -7 -9 -5 -4 5 4 8 0
6 -8 -4 -9 -11 -16 -28 -16 -38 0 -10 -3 -17 -7 -15 -5 1 -8 0 -9 -3 0 -3 -19
-25 -42 -49 -23 -24 -39 -47 -37 -51 3 -4 -3 -14 -13 -21 -16 -13 -16 -12 -3
6 8 11 2 8 -13 -8 -15 -15 -24 -31 -21 -36 3 -5 0 -13 -6 -17 -8 -4 -9 -3 -5
4 4 7 3 12 -3 12 -14 0 -52 -51 -45 -61 3 -5 -2 -6 -10 -3 -11 4 -16 0 -16
-11 0 -9 -4 -14 -9 -10 -12 7 -43 -24 -35 -36 3 -5 2 -9 -3 -8 -21 4 -34 -2
-27 -13 5 -8 2 -9 -9 -5 -11 4 -20 -1 -27 -13 -6 -11 -17 -20 -25 -20 -7 0
-23 -12 -35 -27 -12 -16 -19 -22 -15 -15 10 19 -6 14 -26 -9 -9 -11 -20 -20
-23 -20 -20 3 -26 0 -21 -9 3 -6 -1 -7 -9 -4 -9 3 -16 1 -16 -6 0 -6 -3 -9 -8
-6 -12 7 -83 -29 -75 -39 5 -5 0 -3 -9 4 -13 10 -18 10 -18 2 0 -7 -4 -10 -9
-6 -6 3 -14 -3 -20 -12 -6 -10 -11 -13 -11 -7 0 6 -13 9 -30 6 -16 -2 -28 -8
-25 -12 3 -5 -4 -6 -16 -3 -12 4 -25 0 -30 -8 -5 -8 -9 -9 -9 -4 0 6 -9 11
-19 11 -11 0 -18 -3 -15 -7 2 -4 -18 -5 -46 -2 -38 4 -50 2 -50 -8 0 -12 -2
-12 -9 0 -5 8 -16 11 -24 8 -8 -3 -20 0 -27 6 -10 9 -11 9 -5 -3 8 -13 7 -13
-8 -1 -14 11 -17 11 -18 0 0 -10 -2 -11 -6 -1 -2 6 -15 12 -27 12 -12 0 -28 6
-35 13 -8 6 -11 7 -8 1 3 -6 0 -11 -8 -11 -8 0 -12 4 -9 9 5 8 0 10 -28 12 -7
1 -19 8 -26 16 -12 13 -13 13 -6 0 7 -13 5 -13 -9 -2 -9 8 -21 11 -26 8 -5 -4
-16 3 -25 15 -8 12 -19 18 -25 14 -7 -3 -10 -2 -9 3 2 6 -1 11 -7 12 -5 1 -14
8 -18 16 -4 8 -13 14 -18 14 -6 0 -7 -6 -3 -12 4 -8 3 -10 -2 -5 -5 5 -9 14
-9 20 -1 7 -6 11 -13 10 -7 -2 -11 1 -9 6 3 12 -89 102 -97 94 -4 -4 -4 0 0
10 4 12 -1 20 -17 26 -14 6 -17 10 -9 11 13 1 13 2 -1 13 -9 7 -16 14 -16 17
0 21 -16 49 -25 44 -6 -4 -8 -2 -4 4 7 12 -14 63 -24 57 -4 -2 -7 2 -7 10 0 8
5 11 11 8 6 -3 5 0 -1 8 -7 7 -13 23 -13 36 0 13 -5 23 -12 23 -6 0 -8 3 -5 7
4 3 1 13 -6 21 -10 13 -9 14 3 7 13 -8 13 -7 1 8 -11 14 -11 17 0 17 8 0 5 6
-7 15 -18 15 -18 15 0 8 11 -3 17 -2 14 3 -19 35 -30 76 -17 68 17 -10 9 19
-9 32 -16 13 -16 14 1 8 20 -7 23 6 5 25 -11 10 -10 11 3 6 11 -4 15 0 14 14
-1 11 -5 24 -10 28 -4 5 -5 3 -1 -4 3 -6 2 -14 -3 -17 -10 -7 -9 13 1 30 4 6
6 21 3 33 -2 12 0 19 6 16 5 -4 7 -10 4 -15 -3 -5 -1 -11 4 -14 5 -4 7 7 4 25
-3 21 -1 29 6 25 6 -4 9 -1 5 7 -3 8 -1 18 5 22 6 3 11 11 11 17 0 7 -6 6 -15
-2 -9 -7 -15 -8 -15 -2 0 5 7 12 15 16 8 3 15 10 15 16 0 6 -5 8 -12 4 -7 -4
-8 -3 -4 4 4 7 14 12 22 12 8 0 12 5 9 10 -4 6 -11 7 -17 4 -7 -4 -8 -2 -4 4
4 6 14 8 22 5 14 -5 15 -3 5 15 -8 15 -8 23 1 28 6 4 8 3 5 -3 -4 -6 -1 -13 6
-16 10 -4 12 3 9 25 -4 27 -2 29 16 24 19 -6 21 -4 17 24 -2 17 0 28 6 25 5
-4 9 -1 9 5 0 6 5 8 12 4 7 -5 5 -11 -7 -21 -11 -7 -14 -13 -8 -13 5 0 18 10
29 22 10 12 13 18 7 14 -8 -4 -13 -1 -13 9 0 9 4 14 9 10 5 -3 12 -1 16 5 3 5
0 10 -7 11 -7 0 -3 4 10 10 13 5 21 13 17 19 -3 6 0 7 9 4 9 -3 13 -11 9 -18
-3 -6 3 -3 15 8 12 10 19 23 16 28 -4 5 4 17 17 26 31 21 49 24 42 6 -3 -8 -1
-14 5 -14 6 0 9 11 8 24 -2 17 1 23 10 19 8 -3 11 -9 8 -15 -3 -5 3 -4 14 3
12 7 18 18 14 24 -3 5 1 4 10 -3 19 -15 48 -6 48 17 0 14 2 14 10 1 8 -13 10
-12 10 3 0 9 5 17 11 17 5 0 8 -4 4 -9 -3 -5 -1 -12 5 -16 5 -3 10 1 10 10 0
13 4 14 23 4 20 -11 21 -11 8 5 -12 14 -12 16 2 11 8 -4 18 -2 22 4 3 6 8 11
11 11 3 0 2 -4 -1 -10z m-134 -43 c-13 -13 -26 -3 -16 12 3 6 11 8 17 5 6 -4
6 -10 -1 -17z m2109 -121 c0 -2 -7 -9 -15 -16 -13 -11 -14 -10 -9 4 5 14 24
23 24 12z m2093 -621 c-3 -9 -8 -14 -10 -11 -3 3 -2 9 2 15 9 16 15 13 8 -4z
m-4422 -332 c13 -16 12 -17 -3 -4 -10 7 -18 15 -18 17 0 8 8 3 21 -13z m4314
-83 c3 -5 1 -10 -4 -10 -6 0 -11 5 -11 10 0 6 2 10 4 10 3 0 8 -4 11 -10z m5
-26 c0 -8 -19 -13 -24 -6 -3 5 1 9 9 9 8 0 15 -2 15 -3z m-2415 -52 c-3 -3
-11 0 -18 7 -9 10 -8 11 6 5 10 -3 15 -9 12 -12z m2338 -56 c3 -8 -2 -20 -11
-27 -14 -11 -15 -11 -5 0 6 7 9 20 6 27 -3 8 -3 14 0 14 3 0 7 -6 10 -14z
m-2862 -49 c-10 -9 -11 -8 -5 6 3 10 9 15 12 12 3 -3 0 -11 -7 -18z m2769 -87
c0 -5 -5 -10 -11 -10 -5 0 -7 5 -4 10 3 6 8 10 11 10 2 0 4 -4 4 -10z m-3370
-278 c0 -5 -7 -9 -15 -9 -8 0 -12 4 -9 9 3 4 9 8 15 8 5 0 9 -4 9 -8z"/>
<path d="M3710 3448 c0 -4 4 -8 9 -8 6 0 12 4 15 8 3 5 -1 9 -9 9 -8 0 -15 -4
-15 -9z"/>
<path d="M3373 3325 c0 -8 4 -12 9 -9 5 3 6 10 3 15 -9 13 -12 11 -12 -6z"/>
<path d="M3209 3238 c-5 -18 -6 -38 -1 -34 7 8 12 36 6 36 -2 0 -4 -1 -5 -2z"/>
<path d="M3592 2946 c-1 -28 2 -36 16 -36 41 -1 45 -13 43 -135 -1 -117 6
-148 38 -172 14 -10 13 -13 -9 -31 -24 -19 -25 -26 -27 -138 -1 -65 -5 -124
-7 -130 -3 -7 -15 -14 -28 -16 -30 -4 -41 -67 -11 -69 74 -5 136 13 139 41 1
6 3 11 4 13 9 9 11 64 6 157 -4 75 12 129 34 115 6 -4 10 0 10 7 0 9 3 9 10
-2 5 -8 10 -10 11 -5 0 6 2 21 3 35 4 33 -3 50 -20 50 -33 0 -49 39 -49 115 0
41 2 75 5 75 7 0 4 47 -5 87 -11 48 -37 66 -104 71 l-58 4 -1 -36z"/>
<path d="M2776 2774 c-8 -21 -8 -24 5 -24 5 0 8 4 5 9 -4 5 -1 11 6 13 8 3 9
6 1 11 -6 4 -14 0 -17 -9z"/>
<path d="M3475 1980 c3 -5 11 -10 16 -10 6 0 7 5 4 10 -3 6 -11 10 -16 10 -6
0 -7 -4 -4 -10z"/>
<path d="M800 3135 c-7 -9 -10 -18 -6 -22 3 -3 6 -1 6 6 0 7 4 10 8 7 5 -3 9
1 9 9 0 19 -2 19 -17 0z"/>
<path d="M1338 2945 c-38 -21 -43 -43 -43 -185 l0 -125 -32 -15 c-27 -12 -33
-21 -33 -47 0 -25 7 -35 36 -52 l37 -22 -6 -98 c-7 -111 3 -164 36 -186 20
-12 75 -21 113 -16 15 1 25 39 13 47 -5 3 -7 10 -4 15 4 5 -5 9 -19 9 -31 0
-36 17 -35 120 2 125 1 130 -33 163 -18 17 -28 27 -21 23 15 -8 47 22 51 49 2
11 3 70 3 132 1 113 8 138 40 131 10 -2 15 9 17 35 l3 37 -48 0 c-26 -1 -60
-7 -75 -15z"/>
<path d="M5085 2220 c-3 -6 1 -7 9 -4 18 7 21 14 7 14 -6 0 -13 -4 -16 -10z"/>
<path d="M2379 2123 c-13 -16 -12 -17 4 -4 9 7 17 15 17 17 0 8 -8 3 -21 -13z"/>
<path d="M2306 2071 c-3 -5 1 -11 9 -14 9 -4 12 -1 8 9 -6 16 -10 17 -17 5z"/>
<path d="M220 1920 c0 -5 5 -10 11 -10 5 0 7 5 4 10 -3 6 -8 10 -11 10 -2 0
-4 -4 -4 -10z"/>
<path d="M1762 1598 c-7 -7 -12 -17 -12 -22 0 -6 5 -3 11 7 6 9 15 14 21 11 7
-4 8 -2 4 4 -9 15 -9 15 -24 0z"/>
<path d="M1350 1439 c0 -5 5 -7 10 -4 6 3 10 8 10 11 0 2 -4 4 -10 4 -5 0 -10
-5 -10 -11z"/>
<path d="M4167 1309 c7 -7 15 -10 18 -7 3 3 -2 9 -12 12 -14 6 -15 5 -6 -5z"/>
</g>
</svg>
