<svg xmlns="http://www.w3.org/2000/svg" width="1218.667" height="1218.667" version="1" viewBox="0 0 914 914">
  <g fill="#fe5f55">
    <path d="M171.5 233.2c-18 1.4-29.8 4.6-43.5 11.9-26.7 14.4-43 38.8-46.7 69.9-.9 7.1-.9 282.5-.1 290.5 3.5 32.7 24.5 61 54.8 73.9 3.1 1.3 7.6 2.8 9 3.1.3 0 2.8.6 5.5 1.3 7.8 1.8 10.3 2.2 20.5 2.9 12.4.8 120.9.7 128-.1 3-.4 7.1-.9 9-1.1 1.9-.2 7.3-1.3 12-2.4 4.7-1.2 9.5-2.4 10.8-2.6 3.1-.7 11.4-4 18.1-7.3 11.6-5.6 25.6-15.5 34.1-24.3 7.1-7.3 14.7-15.9 14.1-15.9-.3 0-.1-.4.4-.8.6-.4 5.5-6.1 11-12.7s10.4-12.5 11-13.1c.5-.6 2.4-2.8 4-5 1.7-2.1 7.5-9.2 13-15.8 5.4-6.7 12-14.6 14.6-17.8 2.5-3.1 5-5.3 5.6-5 1.1.8 8.6 9.6 18.3 21.7 3.5 4.4 6.7 8.2 7 8.5.3.3 3.5 4.1 7 8.5s7.8 9.6 9.4 11.6c1.7 2 4.5 5.4 6.3 7.5 1.8 2.2 6.9 8.4 11.5 13.9 8.9 10.8 18.7 20.6 23.1 23.3 1.5.9 2.7 2 2.7 2.4 0 .3 1.8 1.7 4 2.9 2.2 1.3 4 2.6 4 3.1 0 .4.6.8 1.4.8.8 0 2.1.6 2.8 1.3 3.8 3.6 28.9 13.6 37.9 15.1 1.9.3 4.5.8 5.8 1 2.9.6 12.1 1.7 18.1 2.2 7.5.6 123.1.4 129-.1 7.7-.8 19.4-3.3 24-5.2.8-.3 2-.7 2.6-.8 2.8-.6 15.4-7.2 20.9-10.8 5.1-3.4 17.1-14.8 21.2-20 5.5-7 13.7-24.5 14.6-30.9.2-2 .7-4 1-4.5 1.2-1.9 2.1-14.1 2.1-28.5.1-9.2.5-14.8 1.1-14.8.7 0 .7-.3 0-.8-1.2-.9-1.4-103.2-.2-103.2.5 0 .5-.5.1-1.2s-.9-35-1-76.2c-.1-41.3-.5-76.2-.8-77.6-.3-1.4-.8-4.3-1.1-6.5-.2-2.3-.8-5.2-1.3-6.5-.5-1.4-1-2.8-1.1-3.2-1.3-6.6-9.8-22.1-15.5-28.6-14.6-16.4-27.2-24.8-45.4-30.1-14.3-4.2-19.7-4.5-86.2-4.5-56.7 0-74.4.5-79.2 2.2-1.3.5-3 .8-3.8.7-.8-.1-1.9.1-2.5.4-.5.3-1.9.7-3 .8-2.6.4-15.5 4.1-18 5.3-29.6 13.2-38.5 20.4-65.6 53.1-8.5 10.2-17 20.5-18.9 22.9-1.9 2.4-4.6 5.7-6 7.2-1.4 1.6-3.5 4-4.7 5.6-23.4 29.2-22.1 27.9-24.1 25-.9-1.3-1.9-2.5-2.2-2.8-.3-.3-6.6-7.9-14-17s-13.7-16.7-14-17c-.5-.4-8.6-10.4-12.7-15.5-.9-1.1-2.8-3.4-4.2-5-1.4-1.7-4.2-5.1-6.1-7.5-16.8-21.1-31-33.5-49-42.9-16.2-8.4-35.1-13.5-54.5-14.8-13.1-.8-115.4-.9-126-.1zm52 126.8c.3-.5 1.5-.6 2.9 0 1.2.4 2.9.5 3.6 0 .7-.4 2.3-.5 3.4 0 1.1.4 3.2.4 4.6 0 1.4-.4 3.4-.4 4.5 0s3 .4 4.1-.1c1.2-.4 2.4-.5 2.7-.3.3.3 2.7.5 5.4.5 13.5-.3 15.3-.2 16.3.4.5.3 1 .1 1-.5s.5-.8 1.1-.4c1.3.8 10.7.9 11.5.1.3-.3 1.9-.1 3.5.3 1.6.5 3.1.5 3.4 0 .9-1.4 6.8.8 9 3.3 1.1 1.3 4 4.7 6.5 7.7 2.5 2.9 5.1 5.9 5.8 6.6.6.7 1.2 1.5 1.2 1.7 0 .3 1.3 1.8 2.8 3.5 1.6 1.6 3.9 4.4 5.3 6.2 1.3 1.7 3.3 4.1 4.4 5.4 1.1 1.2 3.5 4.1 5.3 6.3 1.8 2.3 4.5 5.4 5.8 7 1.4 1.5 4.6 5.4 7.1 8.5 2.5 3.2 5 5.8 5.4 5.8.5 0 .9.4.9 1 0 1.1 1.9 3.6 6.8 8.6 1.7 1.9 3.2 3.7 3.2 4 0 .3.6 1.1 1.3 1.8.6.7 3.2 3.7 5.7 6.6 2.5 3 6.4 7.6 8.7 10.3l4.2 5-2.1 3.1c-2.2 3.1-14.8 18.4-18.2 22.1-1 1.1-3 3.6-4.4 5.5-1.5 1.9-2.9 3.7-3.2 4-.7.7-10.2 12-12.6 14.9-1 1.3-2.9 3.4-4.1 4.7-1.3 1.3-2.3 2.6-2.3 3 0 .4-.8 1.4-1.8 2.3-1 .9-3.3 3.6-5.2 6.1-1.9 2.4-4.2 5.2-5 6-.8.9-5.1 6-9.5 11.4s-9.6 11.5-11.5 13.6l-3.6 3.7-14.7-.1c-8.1-.1-14.7.3-14.7.8s-.6.4-1.2-.1c-1.4-1-40.4-1-41.4 0-.3.3-1.2.3-2 0s-3.6-.6-6.2-.7c-2.6-.1-5.1-.4-5.7-.8-.7-.4-.9-34.3-.9-99 .1-54 .2-98.7.3-99.2.1-.4 1.2-.6 2.6-.4 1.4.3 2.8.2 3-.3.3-.4 1.9-.4 3.5.1 1.7.5 3.2.5 3.5 0zm470.3.4c3.4-.1 6.5.2 6.8.7.8 1.3.7 196.9-.1 197.7-.4.4-19.8.7-43.2.7-36.8.1-42.7-.1-44.2-1.5-1-.8-4.2-4.4-7.2-8-2.9-3.6-5.8-7-6.4-7.6-.5-.7-2.4-2.9-4.2-5-1.7-2.2-3.9-4.9-5-6.1-1-1.1-3.4-4-5.2-6.3-1.9-2.4-4-4.8-4.6-5.4-.5-.6-4.1-4.9-7.9-9.6-3.9-4.7-7.2-8.7-7.6-9-.3-.3-2.4-2.8-4.5-5.5-2.2-2.8-4.3-5.2-4.6-5.5-.3-.3-4.4-5.1-9-10.6-13.6-16.5-15.4-18.7-15.7-19.3-.2-.6 4.1-6.1 10.1-13.1 1.2-1.4 5.4-6.3 9.2-11 3.9-4.7 8-9.6 9.1-11 3.7-4.2 10.4-12.3 13.2-15.8 1.5-1.8 3.2-3.9 3.9-4.6.6-.7 3.5-4.2 6.4-7.7 2.9-3.5 6-7.2 6.8-8.1.9-.9 2.1-2.3 2.6-3 .6-.7 5.6-6.7 11.2-13.4l10.1-12.1 31.9.1c17.5.1 33.2-.2 34.8-.5 1.7-.3 3.9-.3 5 .1 1.1.3 4.8.5 8.3.4z"/>
    <path fill="#eef5db" d="M287 402.2c0 .4-.8.8-1.9.8-1.9 0-8 5.6-8.2 7.4 0 .6-.3 2-.5 3.1-.3 1.1-.6 8.7-.8 17-.2 8.2-.8 16.2-1.4 17.7-.6 1.4-2.8 4-5 5.8-2.7 2.1-3.8 3.8-3.7 5.3.1 1.2.3 2.7.4 3.3 0 .6 1.5 1.7 3.2 2.5 5.1 2 6.2 6.1 6.5 23.6.3 17.4 1.2 21.1 6 25.1 2.8 2.4 4.5 2.9 9.4 3.1 5.9.2 6.3 0 6.3-3.4 0-3-.4-3.3-3.9-3.3-4.3 0-7-2.3-7.8-6.5-.3-1.8-.6-10.1-.7-18.4 0-8.4-.5-15.5-1-15.9-.5-.3-.9-1.3-.9-2.2 0-1.6-1-2.6-6.6-6.6-1.4-1.1-1.2-1.5 2-4 6.3-4.8 6.6-5.8 6.9-29.8.3-15.8 1.1-17.8 7.2-17.8 2.9 0 3.7-.5 4.6-2.7.6-1.7.6-3 0-3.6-1.2-1.2-10.1-1.7-10.1-.5zm327.2 3.2c-.1 3.2.1 3.6 2.3 3.6 1.4 0 2.6-.1 2.8-.2.9-.6 5 2.8 5.8 5 .6 1.5 1.2 10.1 1.3 19.2.4 18.7 1.2 21.7 7.2 25.2l3.5 2.1-2.8 1.7c-3.7 2.3-6.2 5.2-7 8.1-.3 1.3-.7 8.7-.9 16.4-.4 18.9-1 22.2-3.7 23.2-3 1-3.3 1-6.2 1.2-2.1.1-2.5.6-2.5 3 0 3.3 1.5 4 8 3.5 5.4-.4 8.9-2.9 11.4-7.9 1.5-3.2 1.9-6.9 2.2-19.5.1-8.5.4-16.2.6-17 .7-2.8 4.1-7.2 6.4-8.1 4-1.5 4.5-8.2.7-9.6-2.6-1-6.1-5.3-6.8-8.5-.4-1.5-.7-9.8-.8-18.5-.2-13.3-.5-16.3-2-18.8-3.1-5-6.5-6.9-13.3-7.3l-6.1-.4-.1 3.6z"/>
  </g>
</svg>
