<svg version="1.1" id="Layer_1" xmlns="http://www.w3.org/2000/svg" xmlns:xlink="http://www.w3.org/1999/xlink" x="0px" y="0px"
	 viewBox="0 0 512 512" style="enable-background:new 0 0 512 512;" xml:space="preserve">
<polygon style="fill:#25B6D2;" points="420.472,355.784 420.472,499.688 238.192,355.784"/>
<path style="fill:#E04F5F;" d="M485.224,380.424H26.776C12.008,380.384,0.04,368.416,0,353.648V39.088
	C0.04,24.32,12.008,12.352,26.776,12.312h458.448C499.992,12.352,511.96,24.32,512,39.088v314.56
	C511.96,368.416,499.992,380.384,485.224,380.424z"/>
<g>
	<rect x="256" y="75.016" style="fill:#FFFFFF;" width="133.08" height="16"/>
	<rect x="122.92" y="125.056" style="fill:#FFFFFF;" width="266.16" height="16"/>
	<rect x="256" y="175.088" style="fill:#FFFFFF;" width="133.08" height="16"/>
	<rect x="122.92" y="225.12" style="fill:#FFFFFF;" width="266.16" height="16"/>
	<rect x="256" y="275.168" style="fill:#FFFFFF;" width="133.08" height="16"/>
</g>
<polygon style="fill:#0099B2;" points="420.472,380.424 267.808,380.424 295.512,401.032 420.472,401.032"/>
</svg>
