<svg xmlns="http://www.w3.org/2000/svg" width="90" height="90" viewBox="0 0 90 90">
  <path d="M65.71 10.5c1.17 2.657 1.927 7.07.796 10.3 4.625 3.95 6.215 13.55 3.982 21.395 6.592.503 14.444-.242 19.512 1.78-4.738-.608-11.21-1.803-17.32-1.387-1.158.08-2.873-.044-2.79 1.585 7.075.555 14.105 1.16 19.913 2.973-5.76-.94-12.754-2.375-19.912-2.574-2.95 5.835-8.9 8.703-17.12 9.307.89 1.92 2.58 2.65 2.99 5.74.62 4.62-.96 11.38.6 14.46.75 1.47 1.97 1.51 2.79 2.77-2.01 2.38-7-.27-7.57-2.78-.97-4.297 1.488-10.955-1.19-13.867.19 4.685-1.11 11.264.2 15.45.518 1.645 2 2.28 1.59 3.765-9.35.95-5.44-12.1-6.97-19.81-1.41.1-.79 2.115-.792 2.974-.04 7.524 1.54 17.844-6.57 16.84-.237-1.58 1.088-2.12 1.593-3.564 1.48-4.232-.276-10.54.4-15.65-3.093 2.335.327 10.48-1.59 14.658-1.106 2.405-4.667 3.45-7.37 2.378.35-1.79 2.2-1.5 2.985-3.17 1.098-2.326.01-5.676.4-9.11-5.73 1.14-10.172-.17-12.35-3.767-.97-1.618-1.21-3.52-2.39-4.95-1.17-1.436-3.04-1.63-3.58-3.567 7.096-1.708 7.368 7.302 13.74 7.524 1.954.07 2.97-.563 4.778-.988.51-2.274 1.59-3.97 3.19-5.155-7.93-1.085-14.478-3.554-17.523-9.504-7.208.357-13.804 1.32-19.91 2.77 5.54-2.01 12.38-2.73 19.71-2.966-.43-2.596-4.22-1.88-6.57-1.78-4.37.19-9.87.733-13.34 1.385 5.03-1.797 12.095-1.57 18.915-1.587-2.087-6.54-1.364-16.928 3.185-20.797-1.29-3.25-.89-8.56.795-11.09 5.08.228 8.16 2.443 11.35 4.557 3.957-1.126 8.118-1.686 13.54-1.388 2.28.125 4.65 1.15 6.37.99 1.684-.16 3.54-2.05 5.177-2.773 2.13-.94 3.935-1.3 6.373-1.383z"/>
</svg>
