<svg xmlns="http://www.w3.org/2000/svg" width="430" height="430" viewBox="0 0 430 430">
  <path d="M344.253 342.62c-44.8-.188-68.672-22.244-85.268-61.11l-4.724-10.614-40.91-93.878c-13.55-33.234-47.22-55.685-85.2-55.685-51.38 0-93.07 41.973-93.07 93.74 0 51.772 41.69 93.748 93.076 93.748 35.84 0 67.03-20.4 82.57-50.33l16.56 38.42c-23.49 28.84-59.194 47.19-99.137 47.19C57.372 344.1 0 286.37 0 215.07 0 143.818 57.372 86.02 128.142 86.02c53.42 0 96.54 28.717 118.448 79.612 1.685 3.946 23.177 54.59 41.938 97.69 11.62 26.68 21.52 44.366 53.662 45.46 31.568 1.09 53.238-18.254 53.238-42.715 0-23.9-16.52-29.64-44.417-38.98-50.12-16.63-76.02-33.34-76.02-73.377 0-39.05 26.39-65.092 69.27-65.092 27.94 0 48.09 12.513 62.06 37.46l-27.4 14.094c-10.33-14.552-21.702-20.297-36.19-20.297-20.132 0-34.48 14.095-34.48 32.842 0 26.61 23.62 30.63 56.7 41.552 44.498 14.59 65.18 31.26 65.18 72.88 0 43.7-37.244 75.53-85.865 75.46z"/>
</svg>
