<?xml version="1.0" standalone="no"?>
<!DOCTYPE svg PUBLIC "-//W3C//DTD SVG 20010904//EN"
 "http://www.w3.org/TR/2001/REC-SVG-20010904/DTD/svg10.dtd">
<svg version="1.0" xmlns="http://www.w3.org/2000/svg"
 width="296.000000pt" height="246.000000pt" viewBox="0 0 296.000000 246.000000"
 preserveAspectRatio="xMidYMid meet">
<metadata>
Created by potrace 1.14, written by Peter Selinger 2001-2017
</metadata>
<g transform="translate(0.000000,246.000000) scale(0.100000,-0.100000)"
fill="#000000" stroke="none">
<path d="M1153 2434 c-57 -28 -123 -94 -123 -123 0 -10 9 -21 20 -24 12 -3 20
-14 20 -26 0 -11 8 -25 18 -30 9 -5 44 -64 77 -130 l59 -121 29 28 c16 15 65
67 110 115 l80 88 -66 67 c-36 37 -71 79 -76 95 -6 15 -17 27 -25 27 -8 0 -17
14 -21 30 -8 38 -33 39 -102 4z"/>
<path d="M1695 2440 c-3 -5 -4 -14 0 -20 3 -5 -6 -17 -20 -26 -14 -9 -25 -21
-25 -28 0 -6 -64 -78 -141 -161 -78 -82 -217 -231 -310 -330 -165 -178 -169
-181 -278 -239 -60 -32 -120 -70 -134 -85 -22 -23 -648 -913 -742 -1053 -33
-51 -37 -63 -33 -106 7 -72 45 -139 123 -217 138 -138 365 -213 460 -151 13 9
84 100 158 204 238 334 608 862 627 895 10 18 23 73 30 122 7 50 16 108 21
131 10 47 402 823 424 840 8 6 15 18 15 27 0 9 11 24 25 33 34 22 32 34 -15
87 -59 66 -164 110 -185 77z"/>
<path d="M1621 1673 l-111 -217 25 -150 c22 -134 28 -155 61 -204 92 -139 749
-1049 768 -1064 54 -44 184 -32 305 28 53 26 97 59 151 113 92 90 133 163 134
236 1 56 40 -2 -462 705 -348 490 -309 445 -448 519 -107 56 -128 72 -207 157
-49 52 -92 94 -97 94 -4 0 -58 -98 -119 -217z"/>
</g>
</svg>
