<?xml version="1.0" encoding="utf-8"?>
<!-- Generator: Adobe Illustrator 19.2.1, SVG Export Plug-In . SVG Version: 6.00 Build 0)  -->
<svg version="1.1" id="Layer_1" xmlns="http://www.w3.org/2000/svg" xmlns:xlink="http://www.w3.org/1999/xlink" x="0px" y="0px"
	 viewBox="0 0 560 345.3" style="enable-background:new 0 0 560 345.3;" xml:space="preserve">
<style type="text/css">
	.st0{opacity:0.9961;fill:#EEF5DB;enable-background:new    ;}
	.st1{fill:#FE5F55;}
	.st2{opacity:0.9961;enable-background:new    ;}
	.st3{enable-background:new    ;}
	.st4{fill:#EEF5DB;}
</style>
<g>
	<path class="st0" d="M398.7,133c0.3,0,0.6,0,0.8,0.1c0.6,0.2,1.3,0.4,1.8,0.6c4,1.5,6.6,5.7,6.7,10.6c0,5.7,0,11.5,0,17.2
		c-0.1,2.9,0.9,5.5,2.9,7.6c0.9,0.9,1.9,1.5,3,1.9c1,0.4,1.4,1,1.3,2.1c0,0.3,0,0.5,0,0.8c0.2,1.8-0.2,2.8-2.2,3.7
		c-3.7,1.6-4.9,5.2-5,9c-0.1,5.5,0.1,11-0.1,16.5c-0.1,2.3-0.6,4.5-1.6,6.7c-1.6,3.4-4.6,5-8.4,5.1c-1.4,0.1-2.7,0.1-4-0.1
		c-0.4,0-0.8-0.7-1.2-1.1c-0.1-0.1,0-0.2,0-0.3c0-4-0.4-3.4,3.1-3.4c3.4,0,5.1-1.5,5.3-4.9c0.2-3.1,0.2-6.1,0.3-9.2
		c0.1-3.5,0-7,0-10.5c0.1-4.8,2.2-8.5,6.6-10.7c0.2-0.1,0.4-0.2,0.6-0.3c0.1-0.1,0.1-0.2,0.2-0.4c-0.2-0.2-0.5-0.3-0.7-0.5
		c-4.5-1.8-6.5-5.4-6.6-10c-0.2-5.6,0-11.2-0.1-16.9c0-1.8-0.2-3.5-0.6-5.3c-0.6-2.4-1.9-3.3-4.4-3.3c-3.5,0-3.5,0-3.6-3.6
		c0-0.5-0.1-1-0.1-1.4C394.6,133,396.6,133,398.7,133z"/>
	<path class="st0" d="M167.9,133c0,1.3-0.1,2.6-0.2,3.9c-0.2,0.6-0.6,0.9-1.1,1.1c-0.6,0.1-1.3,0.1-1.9,0.1c-3.4,0-5.1,1.4-5.3,4.9
		c-0.2,3.1-0.3,6.3-0.3,9.4c-0.1,3.5,0,6.9,0,10.4c-0.1,4.8-2.1,8.5-6.5,10.7c-0.3,0.2-0.7,0.4-1,0.6c0.2,0.2,0.5,0.4,0.8,0.5
		c4.6,1.8,6.5,5.5,6.7,10.1c0.2,5.7,0,11.4,0.1,17c0,1.8,0.3,3.6,0.8,5.4c0.6,2.2,1.8,2.9,4.1,2.9h0.3c3.8,0,3.8,0,3.4,3.7
		c0,0.4-0.6,1.1-1,1.1c-1.8,0.2-3.6,0.1-5.3-0.1c-5.3-0.8-8.9-5.2-8.9-10.8c0-5.7,0.1-11.4-0.1-17c-0.1-1.9-0.6-3.8-1.3-5.6
		c-0.8-2.2-2.4-3.6-4.7-4.2c-0.4,0-0.7-0.2-1-0.5c-0.2-0.3-0.3-0.7-0.3-1.1c0-0.6,0-1.2,0-1.8c-0.2-1.5,0.3-2.3,1.9-2.9
		c4-1.8,5.2-5.4,5.4-9.4c0.2-5.7,0-11.5,0.1-17.2c0.1-4.1,1.7-7.6,5.3-9.8c1.1-0.6,2.2-1,3.4-1.3c0.1,0,0.2,0,0.4-0.1
		C163.7,133,165.8,133,167.9,133z"/>
	<path class="st1" d="M454.3,174.3c0-23,0-45.9,0-68.9c0-1.4-0.3-2-1.9-1.9c-19.6,0-39.1,0-58.7,0c-1,0-1.9,0.4-2.5,1.2
		c-19,22.8-38,45.5-57.1,68.2c-0.8,1-0.9,1.6,0,2.6c19,22.7,38,45.4,57,68.2c0.7,0.9,1.7,1.4,2.9,1.3c19.3,0,38.7,0,58,0
		c2.2,0,2.2,0,2.2-2.2C454.3,220,454.3,197.1,454.3,174.3L454.3,174.3z M106.2,174.2c0,22.7,0,45.5,0,68.2c0,2.5,0,2.5,2.4,2.5
		c19.2,0,38.5,0,57.7,0c1.3,0.1,2.4-0.4,3.1-1.5c18.9-22.7,37.8-45.3,56.7-67.9c0.9-1,0.9-1.6,0-2.7c-18.9-22.6-37.8-45.2-56.7-67.9
		c-0.8-1.1-1.9-1.6-3.3-1.5c-19.2,0-38.5,0-57.7,0c-2.3,0-2.3,0-2.3,2.3C106.2,128.6,106.2,151.4,106.2,174.2z M280.2,246.6
		l-6.1,7.4c-13.1,15.9-26.1,32-39.4,47.8c-14.3,17.1-32.6,27.5-54.5,31.7c-6.7,1.3-13.4,1.9-20.3,1.9c-27,0-54,0.6-80.9-0.3
		c-24.6-0.8-44.5-11.3-57.2-33.3c-4.4-7.8-7-16.1-7.7-25c-0.3-3.1-0.4-6.3-0.4-9.4c0-62.1,0-124.2,0-186.3c0-13.4,2.7-25.9,9.9-37.3
		c9.6-15,23.4-24.1,40.5-28.4c6-1.5,12.2-2.3,18.4-2.3c26.7,0,53.4-0.4,80.1,0.1c29.7,0.6,54.7,12,73.7,35.3
		c14.1,17.2,28.3,34.4,42.4,51.6c0.4,0.5,0.9,1.1,1.5,1.7c0.5-0.5,0.9-0.9,1.2-1.4c14.8-17.9,29.4-36,44.3-53.8
		C340,29.5,358.4,19.1,380.3,15c6.7-1.3,13.6-1.9,20.4-1.9c26.6,0,53.2-0.4,79.8,0.2c20.9,0.5,38.9,8.3,52.3,25
		c7.2,9,11.6,19.2,13,30.6c0.5,3.9,0.8,7.8,0.8,11.8c0,62.4,0.1,124.7,0.1,187.1c0,13.2-2.8,25.7-9.9,37
		c-9.5,14.9-23.2,23.9-40.2,28.3c-6.1,1.6-12.3,2.4-18.6,2.3c-26.9,0-53.8,0.4-80.7-0.2c-29.6-0.6-54.4-12.3-73.3-35.4
		c-14.1-17.2-28.2-34.4-42.4-51.6C281.2,247.7,280.8,247.2,280.2,246.6z"/>
	<g class="st2">
		<g>
			<g>
				<g class="st3">
				</g>
				<g class="st3">
				</g>
				<g class="st3">
				</g>
				<g class="st3">
				</g>
				<g class="st3">
				</g>
				<g class="st3">
				</g>
				<g class="st3">
				</g>
				<g class="st3">
				</g>
				<g class="st3">
				</g>
				<g class="st3">
					<path class="st4" d="M208.2,92l-1.5-2l8.3-6.6l-5.4,2.3l-1.2-1.5l3.5-4.7l-8.3,6.6l-1.5-2l12.3-9.8l1.8,2.3l-4.3,6l6.8-2.8
						l1.9,2.3L208.2,92z"/>
				</g>
				<g class="st3">
					<path class="st4" d="M215.8,101.5l2.2-3.2l-3.3-4l-3.6,1.5l-1.6-2l15.3-6.1l1.8,2.2l-9.1,13.7L215.8,101.5z M216.9,93.3l2.4,3
						l3.8-5.6L216.9,93.3z"/>
				</g>
				<g class="st3">
					<path class="st4" d="M233.2,107.1l-1.4-1.7l2.7-2.2l-1.3-1.6l-8.7,7.1l1.6,1.9l-1.7,1.4l-4.7-5.8l1.7-1.4l1.6,1.9l8.7-7.1
						l-1.4-1.7l-2.7,2.2l-1.4-1.7l4.4-3.6l7.1,8.7L233.2,107.1z"/>
				</g>
				<g class="st3">
					<path class="st4" d="M241.7,117.5l-1.4-1.7l2.7-2.2l-1.3-1.6L233,119l1.6,1.9l-1.7,1.4l-4.7-5.8l1.7-1.4l1.6,1.9l8.7-7.1
						l-1.4-1.7l-2.7,2.2l-1.4-1.7l4.4-3.6l7.1,8.7L241.7,117.5z"/>
				</g>
				<g class="st3">
					<path class="st4" d="M241.3,132.8l-4.8-5.8l1.7-1.4l1.6,1.9l8.7-7.1l-1.6-1.9l1.7-1.4l4.8,5.8l-1.7,1.4l-1.6-2l-8.7,7.1l1.6,2
						L241.3,132.8z"/>
				</g>
				<g class="st3">
					<path class="st4" d="M249.7,143.1l2.2-3.2l-3.3-4l-3.6,1.5l-1.6-2l15.3-6.1l1.8,2.2l-9.1,13.7L249.7,143.1z M250.7,135l2.4,3
						l3.8-5.6L250.7,135z"/>
				</g>
				<g class="st3">
					<path class="st4" d="M262.5,152.1c-0.6,0.5-1.1,0.8-1.7,0.9c-0.6,0.2-1.2,0.2-1.7,0.1c-0.6-0.1-1.1-0.3-1.6-0.6
						c-0.5-0.3-1-0.7-1.4-1.2c-0.5-0.6-0.8-1.2-1-1.8c-0.2-0.6-0.1-1.3,0.1-2l-1.1,0.9l-1.4-1.7l4-3.2l1.4,1.7
						c-0.4,0.3-0.7,0.7-0.9,1.1s-0.3,0.8-0.3,1.2c0,0.4,0,0.8,0.2,1.2c0.1,0.4,0.3,0.8,0.6,1.1c0.5,0.6,1,0.9,1.5,1.1
						c0.6,0.1,1.1,0,1.7-0.5c0.3-0.2,0.5-0.5,0.6-0.8c0.1-0.3,0.2-0.6,0.2-0.9c0-0.3,0-0.7-0.2-1.1c-0.1-0.4-0.2-0.8-0.4-1.3
						c-0.2-0.6-0.4-1.1-0.6-1.7c-0.2-0.6-0.3-1.2-0.3-1.7c0-0.6,0.1-1.1,0.3-1.7c0.2-0.5,0.6-1.1,1.2-1.6c0.5-0.4,1.1-0.7,1.6-0.8
						c0.6-0.1,1.1-0.1,1.6,0c0.5,0.1,1.1,0.3,1.5,0.6c0.5,0.3,0.9,0.7,1.3,1.2c0.5,0.6,0.7,1.1,0.8,1.7s0,1.2-0.2,1.7l1.1-0.9
						l1.4,1.7l-3.8,3.1l-1.4-1.7c0.7-0.6,1.1-1.2,1.2-1.9c0.1-0.7-0.1-1.4-0.6-2c-0.5-0.6-1-0.9-1.5-1.1c-0.6-0.2-1.1,0-1.6,0.3
						c-0.2,0.2-0.4,0.4-0.5,0.7c-0.1,0.2-0.1,0.5-0.1,0.8c0,0.3,0.1,0.6,0.2,1c0.1,0.4,0.2,0.8,0.4,1.3c0.2,0.6,0.4,1.2,0.6,1.8
						c0.2,0.6,0.2,1.2,0.2,1.8c0,0.6-0.1,1.2-0.4,1.8C263.6,151,263.1,151.6,262.5,152.1z"/>
				</g>
				<g class="st3">
				</g>
				<g class="st3">
				</g>
				<g class="st3">
				</g>
				<g class="st3">
				</g>
				<g class="st3">
					<path class="st4" d="M301.7,206.9l-1.6-1.9l5.3-4.3l-3.2-3.9l-5.3,4.3l-1.6-1.9l12.2-9.9l1.6,1.9l-5.1,4.2l3.2,3.9l5.1-4.2
						l1.6,1.9L301.7,206.9z"/>
				</g>
				<g class="st3">
					<path class="st4" d="M309.4,216.4l2.2-3.2l-3.3-4l-3.6,1.5l-1.6-2l15.3-6.1l1.8,2.2l-9.1,13.7L309.4,216.4z M310.4,208.2l2.4,3
						l3.8-5.6L310.4,208.2z"/>
				</g>
				<g class="st3">
					<path class="st4" d="M325.5,223.7c-0.8,0.7-1.7,1.2-2.6,1.7c-0.9,0.4-1.8,0.7-2.7,0.8c-0.9,0.1-1.7,0-2.6-0.3
						c-0.8-0.3-1.6-0.9-2.3-1.7c-0.7-0.9-1.1-1.7-1.2-2.6c-0.1-0.9-0.1-1.7,0.2-2.6c0.3-0.8,0.7-1.7,1.3-2.4
						c0.6-0.8,1.3-1.5,2.2-2.2c0.8-0.7,1.7-1.2,2.6-1.7c0.9-0.5,1.8-0.7,2.7-0.8c0.9-0.1,1.8,0,2.6,0.3c0.8,0.3,1.6,0.9,2.3,1.7
						c0.2,0.2,0.4,0.5,0.5,0.8c0.1,0.3,0.2,0.6,0.3,1c0,0.3,0,0.7,0,1c-0.1,0.3-0.2,0.7-0.4,1l1.4-1.2l1.4,1.7l-4.3,3.5l-1.4-1.7
						c0.4-0.3,0.7-0.7,0.9-1.1c0.2-0.4,0.4-0.8,0.5-1.2c0.1-0.4,0.1-0.9,0-1.3c-0.1-0.4-0.3-0.8-0.6-1.2c-0.4-0.5-0.9-0.9-1.5-1
						c-0.6-0.1-1.1-0.1-1.7,0c-0.6,0.1-1.2,0.4-1.8,0.8c-0.6,0.4-1.2,0.8-1.7,1.2c-0.5,0.4-1.1,0.9-1.5,1.5s-0.8,1.1-1.1,1.6
						c-0.3,0.6-0.4,1.1-0.4,1.7c0,0.6,0.3,1.1,0.7,1.7c0.6,0.8,1.4,1.2,2.3,1.3c0.9,0.1,2-0.2,3.2-0.9l-2.1-2.6l1.7-1.4l3.5,4.3
						L325.5,223.7z"/>
				</g>
				<g class="st3">
					<path class="st4" d="M330.9,236c-1.1,0.9-2.2,1.2-3.4,0.9s-2.3-1.1-3.5-2.5l-3.2-3.9l12.2-9.9l3,3.7c0.4,0.5,0.8,1,1.1,1.6
						c0.3,0.6,0.5,1.1,0.6,1.7c0.1,0.6,0,1.2-0.2,1.7c-0.2,0.6-0.7,1.1-1.3,1.7c-0.6,0.5-1.3,0.8-2.1,0.9c-0.8,0.1-1.5-0.1-2.3-0.5
						c0.4,1,0.5,1.8,0.4,2.6C332.2,234.7,331.7,235.3,330.9,236z M329.6,233.9c0.6-0.5,0.9-1.1,0.8-1.7c-0.1-0.7-0.4-1.4-1-2.1
						l-1.6-2l-3.6,2.9l1.6,2c0.6,0.8,1.3,1.2,1.9,1.4C328.3,234.6,328.9,234.4,329.6,233.9z M334.4,229.3c0.4-0.3,0.6-0.6,0.7-0.9
						c0.1-0.3,0.1-0.6,0.1-0.9s-0.2-0.6-0.3-0.9c-0.2-0.3-0.4-0.6-0.6-0.8l-1.4-1.7l-3.4,2.7l1.4,1.7c0.2,0.3,0.5,0.5,0.7,0.7
						c0.2,0.2,0.5,0.4,0.8,0.5c0.3,0.1,0.6,0.1,0.9,0.1C333.7,229.7,334.1,229.6,334.4,229.3z"/>
				</g>
				<g class="st3">
					<path class="st4" d="M335.6,248.6l-6.3-7.8l12.2-9.9l6.3,7.8l-1.7,1.4l-4.8-5.9l-3.4,2.7l3.7,4.6l-1.7,1.4l-3.7-4.6l-3.6,2.9
						l4.8,5.9L335.6,248.6z"/>
				</g>
				<g class="st3">
					<path class="st4" d="M344.6,259.7l-2-2.5l2.4-7.2l-0.7-0.9l-4.9,4l-1.6-1.9l12.2-9.9l3.3,4c1.1,1.3,1.6,2.6,1.6,3.9
						s-0.6,2.3-1.8,3.3c-0.5,0.4-1.1,0.7-1.6,0.9c-0.5,0.2-1.1,0.2-1.6,0.2c-0.5-0.1-1.1-0.2-1.6-0.5c-0.5-0.3-1-0.6-1.4-1
						L344.6,259.7z M351.5,250.7c0.6-0.5,0.9-1.1,0.9-1.7c0-0.7-0.3-1.3-0.9-2.1l-1.7-2.1l-3.8,3l1.7,2.1c0.6,0.7,1.2,1.2,1.8,1.3
						C350.2,251.4,350.9,251.2,351.5,250.7z"/>
				</g>
				<g class="st3">
					<path class="st4" d="M359.3,265.6c-0.8,0.7-1.7,1.2-2.6,1.7c-0.9,0.4-1.8,0.7-2.7,0.8c-0.9,0.1-1.7,0-2.6-0.4
						c-0.8-0.3-1.6-0.9-2.3-1.8c-0.7-0.9-1.1-1.7-1.2-2.6s0-1.7,0.2-2.6c0.3-0.8,0.7-1.7,1.4-2.4c0.6-0.8,1.4-1.5,2.2-2.2
						c0.8-0.7,1.7-1.2,2.6-1.7c0.9-0.4,1.8-0.7,2.7-0.8s1.8,0,2.6,0.3c0.8,0.3,1.6,0.9,2.3,1.8c0.2,0.2,0.4,0.5,0.5,0.8
						c0.1,0.3,0.2,0.6,0.3,1c0,0.3,0,0.7,0,1c-0.1,0.3-0.2,0.7-0.4,1l1.4-1.2l1.4,1.7l-4.4,3.5l-1.4-1.7c0.4-0.3,0.7-0.7,0.9-1
						c0.2-0.4,0.4-0.8,0.5-1.2c0.1-0.4,0.1-0.9,0-1.3c-0.1-0.4-0.3-0.8-0.6-1.2c-0.4-0.6-0.9-0.9-1.5-1c-0.6-0.1-1.1-0.1-1.7,0
						s-1.2,0.4-1.8,0.7c-0.6,0.4-1.2,0.7-1.8,1.2c-0.6,0.4-1.1,0.9-1.5,1.4s-0.9,1.1-1.1,1.6c-0.3,0.6-0.4,1.1-0.4,1.7
						c0,0.6,0.2,1.1,0.7,1.7c0.6,0.8,1.4,1.2,2.3,1.3c0.9,0.1,2-0.2,3.2-0.9l-2.1-2.6l1.7-1.4l3.5,4.4L359.3,265.6z"/>
				</g>
			</g>
		</g>
	</g>
	<g class="st2">
		<g>
			<g>
				<g class="st3">
				</g>
				<g class="st3">
				</g>
				<g class="st3">
				</g>
				<g class="st3">
				</g>
				<g class="st3">
				</g>
				<g class="st3">
				</g>
				<g class="st3">
				</g>
				<g class="st3">
				</g>
				<g class="st3">
				</g>
				<g>
					<path class="st4" d="M292,164.5c1.9,2.4,3,5.5,2.8,8.5c-0.2,3.7-1.8,6.8-4.6,9.1c-5.4,4.4-13.3,3.6-17.7-1.8
						c-4.4-5.4-3.6-13.3,1.8-17.7c2.4-2,5.5-3,8.6-2.8C286.5,160.1,289.7,161.7,292,164.5z M292.9,163.9c-2.1-2.6-5.3-4.4-8.5-4.9
						c-4-0.6-7.7,0.4-10.8,2.9c-5.9,4.8-6.7,13.4-2,19.3c4.8,5.9,13.4,6.7,19.3,2c2.6-2.1,4.4-5.2,4.9-8.5
						C296.4,170.7,295.4,166.9,292.9,163.9z M289.3,166.7c-3.2-3.9-9-4.5-13-1.3c-3.9,3.2-4.5,9-1.3,13s9,4.5,13,1.3
						S292.6,170.7,289.3,166.7z"/>
				</g>
				<g class="st3">
				</g>
				<g class="st3">
				</g>
				<g class="st3">
				</g>
				<g class="st3">
				</g>
				<g class="st3">
				</g>
				<g class="st3">
				</g>
				<g class="st3">
				</g>
			</g>
		</g>
	</g>
	<g class="st2">
		<g>
			<g>
				<g class="st3">
				</g>
				<g class="st3">
				</g>
				<g class="st3">
					<path class="st4" d="M215.2,242l-3.9,4.8l3.2,2.6l2.9-3.5l0.8,0.7l-2.9,3.5l4.2,3.4l-0.8,0.9l-9-7.3l4.7-5.7L215.2,242z"/>
				</g>
				<g class="st3">
					<path class="st4" d="M229.9,240.5l-1,1.2l-6-0.5l-1.1,1.4l3.8,3.1l-0.8,0.9l-9-7.3l2.4-3c0.8-1,1.6-1.6,2.5-1.8
						c0.9-0.2,1.7,0.1,2.6,0.7c0.4,0.3,0.7,0.6,0.9,1c0.2,0.4,0.3,0.8,0.3,1.2s0,0.8-0.2,1.2c-0.1,0.4-0.3,0.8-0.6,1.2L229.9,240.5z
						 M222.7,236.4c-0.6-0.5-1.2-0.7-1.8-0.5s-1.2,0.6-1.7,1.2l-1.6,2l3.5,2.9l1.6-2c0.5-0.7,0.8-1.3,0.8-1.9
						C223.6,237.4,223.3,236.9,222.7,236.4z"/>
				</g>
				<g class="st3">
					<path class="st4" d="M231.8,229.1c0.6,0.5,1.1,1,1.6,1.6c0.5,0.6,0.8,1.2,1,1.8c0.2,0.6,0.3,1.2,0.2,1.9
						c-0.1,0.6-0.4,1.3-0.9,1.9c-0.5,0.6-1.1,1.1-1.7,1.3c-0.6,0.2-1.2,0.3-1.9,0.2c-0.6-0.1-1.3-0.3-2-0.6s-1.3-0.7-1.9-1.2
						c-0.6-0.5-1.1-1-1.6-1.6c-0.5-0.6-0.8-1.2-1-1.8c-0.2-0.6-0.3-1.3-0.2-1.9c0.1-0.6,0.4-1.3,0.9-1.9s1.1-1,1.7-1.3
						c0.6-0.2,1.2-0.3,1.9-0.2c0.7,0.1,1.3,0.3,2,0.6C230.5,228.2,231.2,228.6,231.8,229.1z M231,230.1c-0.6-0.5-1.2-0.9-1.7-1.1
						s-1.1-0.4-1.6-0.5s-1,0-1.4,0.2c-0.4,0.2-0.8,0.4-1.1,0.8c-0.4,0.5-0.6,1-0.6,1.5c0,0.5,0.1,1,0.3,1.5c0.2,0.5,0.5,1,0.9,1.4
						c0.4,0.4,0.8,0.9,1.3,1.2c0.5,0.4,0.9,0.7,1.5,1c0.5,0.3,1,0.5,1.6,0.6c0.5,0.1,1,0.1,1.5,0c0.5-0.1,0.9-0.4,1.3-0.9
						c0.4-0.5,0.6-1,0.6-1.5c0-0.5-0.1-1-0.3-1.5c-0.2-0.5-0.5-1-0.9-1.4C231.9,230.9,231.4,230.4,231,230.1z"/>
				</g>
				<g class="st3">
					<path class="st4" d="M242,225.7l-1,1.2l-10.5-2.6l7.6,6.2l-0.8,0.9l-9-7.3l1.1-1.3l10.1,2.4l-7.2-5.9l0.8-1L242,225.7z"/>
				</g>
				<g class="st3">
					<path class="st4" d="M242.6,212.8l-0.7,0.8l-2.2-1.8l-1.6,1.9l7.4,6l1.2-1.4l0.8,0.7l-3.1,3.9l-0.8-0.7l1.2-1.5l-7.4-6
						l-1.6,1.9l2.2,1.8l-0.7,0.8l-3-2.5l5.2-6.4L242.6,212.8z"/>
				</g>
				<g class="st3">
					<path class="st4" d="M254.6,210.2l-4.7,5.7l-9-7.3l4.7-5.7l0.8,0.7l-3.9,4.8l3.2,2.6l2.9-3.5l0.8,0.7l-2.9,3.5l3.3,2.7l3.9-4.8
						L254.6,210.2z"/>
				</g>
				<g class="st3">
					<path class="st4" d="M260.9,202.5l-1,1.2l-10.5-2.6l7.6,6.2l-0.8,0.9l-9-7.3l1.1-1.3l10.1,2.4l-7.2-5.9l0.8-1L260.9,202.5z"/>
				</g>
				<g class="st3">
					<path class="st4" d="M263.2,190.5c0.6,0.5,1.1,1,1.6,1.6c0.4,0.6,0.8,1.2,0.9,1.8s0.2,1.2,0.1,1.9c-0.1,0.6-0.4,1.3-0.9,1.9
						l-2.4,2.9l-9-7.3l2.4-2.9c0.5-0.6,1-1,1.6-1.3c0.6-0.2,1.2-0.3,1.9-0.3c0.6,0.1,1.3,0.2,1.9,0.6
						C262,189.6,262.6,190,263.2,190.5z M262.4,191.5c-1.2-1-2.3-1.5-3.3-1.6s-1.8,0.3-2.5,1.1l-1.6,2l7.4,6l1.6-2
						c0.6-0.8,0.8-1.7,0.5-2.6C264.3,193.4,263.6,192.4,262.4,191.5z"/>
				</g>
				<g class="st3">
				</g>
				<g class="st3">
				</g>
				<g class="st3">
				</g>
				<g class="st3">
				</g>
				<g class="st3">
				</g>
				<g class="st3">
					<path class="st4" d="M300.8,144.3c0.6,0.5,1.1,1,1.6,1.6c0.4,0.6,0.8,1.2,0.9,1.8c0.2,0.6,0.2,1.2,0.1,1.9
						c-0.1,0.6-0.4,1.3-0.9,1.9l-2.4,2.9l-9-7.3l2.4-2.9c0.5-0.6,1-1,1.6-1.3c0.6-0.2,1.2-0.3,1.9-0.3c0.6,0.1,1.3,0.2,1.9,0.6
						C299.6,143.4,300.2,143.8,300.8,144.3z M300.1,145.3c-1.2-1-2.3-1.5-3.3-1.6s-1.8,0.3-2.5,1.1l-1.6,2l7.4,6l1.6-2
						c0.6-0.8,0.8-1.7,0.5-2.6C302,147.2,301.2,146.2,300.1,145.3z"/>
				</g>
				<g class="st3">
					<path class="st4" d="M311.1,140.9l-4.7,5.7l-9-7.3l4.7-5.7l0.8,0.7L299,139l3.2,2.6l2.9-3.5l0.8,0.7l-2.9,3.5l3.3,2.7l3.9-4.8
						L311.1,140.9z"/>
				</g>
				<g class="st3">
					<path class="st4" d="M309,125.1l6.5,10.3l-1,1.3l-11.4-4.3l0.8-1l10.2,3.9l-5.9-9.1L309,125.1z"/>
				</g>
				<g class="st3">
					<path class="st4" d="M323.7,125.4l-4.7,5.7l-9-7.3l4.7-5.7l0.8,0.7l-3.9,4.8l3.2,2.6l2.9-3.5l0.8,0.7l-2.9,3.5l3.3,2.7l3.9-4.8
						L323.7,125.4z"/>
				</g>
				<g class="st3">
					<path class="st4" d="M329.8,117.9l-4.7,5.7l-9-7.3l0.8-0.9l8.2,6.6l3.9-4.8L329.8,117.9z"/>
				</g>
				<g class="st3">
					<path class="st4" d="M332.1,106c0.6,0.5,1.1,1,1.6,1.6c0.5,0.6,0.8,1.2,1,1.8c0.2,0.6,0.3,1.3,0.2,1.9
						c-0.1,0.6-0.4,1.3-0.9,1.9s-1.1,1.1-1.7,1.3c-0.6,0.2-1.2,0.3-1.9,0.2s-1.3-0.3-2-0.6c-0.7-0.3-1.3-0.7-1.9-1.2
						c-0.6-0.5-1.1-1-1.6-1.6c-0.5-0.6-0.8-1.2-1-1.8c-0.2-0.6-0.3-1.3-0.2-1.9c0.1-0.6,0.4-1.3,0.9-1.9c0.5-0.6,1.1-1,1.7-1.3
						c0.6-0.2,1.2-0.3,1.9-0.2c0.7,0.1,1.3,0.3,2,0.6C330.8,105.1,331.5,105.5,332.1,106z M331.3,106.9c-0.6-0.5-1.2-0.9-1.7-1.1
						c-0.6-0.3-1.1-0.4-1.6-0.5c-0.5-0.1-1,0-1.4,0.2c-0.4,0.2-0.8,0.4-1.1,0.8c-0.4,0.5-0.6,1-0.6,1.5c0,0.5,0.1,1,0.3,1.5
						c0.2,0.5,0.5,1,0.9,1.4c0.4,0.4,0.8,0.9,1.3,1.2c0.4,0.4,0.9,0.7,1.5,1c0.5,0.3,1,0.5,1.6,0.6c0.5,0.1,1,0.1,1.5,0
						c0.5-0.1,0.9-0.4,1.3-0.9c0.4-0.5,0.6-1,0.6-1.5s-0.1-1-0.3-1.5c-0.2-0.5-0.5-1-0.9-1.4C332.2,107.7,331.7,107.3,331.3,106.9z"
						/>
				</g>
				<g class="st3">
					<path class="st4" d="M336.2,96.9c0.9,0.7,1.3,1.5,1.3,2.4c0,0.9-0.4,1.8-1.2,2.8l-1.6,2l3.8,3.1l-0.8,0.9l-9-7.3l2.4-3
						c0.8-1,1.6-1.6,2.5-1.8C334.5,96,335.3,96.3,336.2,96.9z M335.4,97.9c-0.6-0.5-1.2-0.7-1.8-0.5c-0.6,0.2-1.2,0.6-1.7,1.2
						l-1.6,2l3.5,2.9l1.6-2c0.5-0.7,0.8-1.3,0.9-1.9C336.3,99,336.1,98.4,335.4,97.9z"/>
				</g>
				<g class="st3">
					<path class="st4" d="M348.6,94.8l-4.7,5.7l-9-7.3l4.7-5.7l0.8,0.7l-3.9,4.8l3.2,2.6l2.9-3.5l0.8,0.7l-2.9,3.5l3.4,2.7l3.9-4.8
						L348.6,94.8z"/>
				</g>
				<g class="st3">
					<path class="st4" d="M355.1,86.7l-1,1.2l-6-0.5l-1.1,1.4l3.9,3.1l-0.8,0.9l-9-7.2l2.4-3c0.8-1,1.6-1.6,2.5-1.8
						c0.9-0.2,1.7,0,2.6,0.7c0.4,0.3,0.7,0.6,0.9,1c0.2,0.4,0.3,0.8,0.3,1.2c0,0.4,0,0.8-0.1,1.2c-0.1,0.4-0.3,0.8-0.6,1.2
						L355.1,86.7z M347.8,82.6c-0.6-0.5-1.2-0.7-1.8-0.5c-0.6,0.2-1.1,0.6-1.7,1.2l-1.6,2l3.5,2.8l1.6-2c0.5-0.7,0.8-1.3,0.8-1.9
						C348.7,83.6,348.4,83.1,347.8,82.6z"/>
				</g>
				<g class="st3">
				</g>
				<g class="st3">
				</g>
				<g class="st3">
				</g>
				<g class="st3">
				</g>
				<g class="st3">
				</g>
				<g class="st3">
				</g>
				<g class="st3">
				</g>
			</g>
		</g>
	</g>
</g>
</svg>
