<?xml version="1.0" encoding="utf-8"?>
<!-- Generator: Adobe Illustrator 19.2.1, SVG Export Plug-In . SVG Version: 6.00 Build 0)  -->
<svg version="1.1" xmlns="http://www.w3.org/2000/svg" xmlns:xlink="http://www.w3.org/1999/xlink" x="0px" y="0px"
	 viewBox="0 0 1000 1000" style="enable-background:new 0 0 1000 1000;" xml:space="preserve">
<style type="text/css">
	.st0{fill:none;stroke:#E7E56A;stroke-miterlimit:10;}
</style>
<g id="Lager_1">
</g>
<g id="Lager_2">
	<g id="_Image_1_">
		<path class="st0" d="M384,648.4c15.4-20.1,213.5-262.1,229.1-282.1c14.9-19.2,34.1-30.8,56.9-35.5c7-1.4,14.1-2.2,21.3-2.2
			c27.7,0,55.4-0.5,83.1,0.2c21.8,0.6,40.5,9.3,54.5,28c7.4,9.9,12.1,21.8,13.5,34.3c0.5,4.4,0.8,8.8,0.8,13.2
			c0,69.9,0.1,139.9,0.1,209.8c0,14.9-2.9,28.8-10.3,41.5c-9.9,16.7-24.2,26.8-41.8,31.7c-6.3,1.8-12.8,2.6-19.3,2.6
			c-28,0-56.1,0.5-84.1-0.2c-30.9-0.7-56.6-13.7-76.4-39.7c-14.7-19.3-29.4-38.6-44.2-57.8"/>
		<path class="st0" d="M428.1,592.3c-14.7,19.3-29.5,38.5-44.2,57.8c-19.8,26-45.5,39-76.4,39.7c-28,0.6-56,0.2-84.1,0.2
			c-6.5,0-13-0.9-19.3-2.6c-17.7-4.9-32-15-41.8-31.7c-7.4-12.6-10.3-26.6-10.3-41.5c0-69.9,0-139.9,0.1-209.8
			c0-4.4,0.3-8.8,0.8-13.2c1.4-12.6,6.1-24.5,13.5-34.3c14-18.7,32.8-27.4,54.5-28c27.7-0.7,55.4-0.2,83.1-0.2
			c7.1,0,14.3,0.7,21.3,2.2c22.8,4.7,42,16.3,56.9,35.5c15.5,20,213.7,262,229.1,282.1"/>
	</g>
</g>
</svg>
