<?xml version="1.0" encoding="utf-8"?>
<!-- Generator: Adobe Illustrator 17.1.0, SVG Export Plug-In . SVG Version: 6.00 Build 0)  -->
<!DOCTYPE svg PUBLIC "-//W3C//DTD SVG 1.1//EN" "http://www.w3.org/Graphics/SVG/1.1/DTD/svg11.dtd">
<svg version="1.1" id="Layer_1" xmlns="http://www.w3.org/2000/svg" xmlns:xlink="http://www.w3.org/1999/xlink" x="0px" y="0px"
	 viewBox="0 0 100 100" enable-background="new 0 0 100 100" xml:space="preserve">
<circle fill="none" stroke="#000000" stroke-width="3.1365" stroke-miterlimit="10" cx="50.1" cy="49.6" r="46"/>
<g>
	<path d="M71.8,63.8h-7c-0.6,0-1.2-0.5-1.2-1.2s0.5-1.2,1.2-1.2h7c0.6,0,1.2,0.5,1.2,1.2S72.4,63.8,71.8,63.8z"/>
	<path d="M74.1,56.8h-9.3c-0.6,0-1.2-0.5-1.2-1.2s0.5-1.2,1.2-1.2h9.3c0.6,0,1.2,0.5,1.2,1.2S74.8,56.8,74.1,56.8z"/>
	<path d="M74.1,49.8h-9.3c-0.6,0-1.2-0.5-1.2-1.2s0.5-1.2,1.2-1.2h9.3c0.6,0,1.2,0.5,1.2,1.2S74.8,49.8,74.1,49.8z"/>
	<path d="M65.6,70.8H46.5c-1.3,0-2.4-0.4-3.3-1.3c-0.7-0.7-1.6-1.1-2.6-1.1h-1.4c-0.6,0-1.2-0.5-1.2-1.2s0.5-1.2,1.2-1.2h1.4
		c1.6,0,3.1,0.6,4.2,1.7c0.4,0.4,1,0.6,1.7,0.6h19.1c2.3,0,3.6-1,4.3-1.9c0.9-1.2,1.1-2.7,0.8-3.6c-0.2-0.6,0.2-1.2,0.8-1.4
		c1.1-0.4,1.6-1.2,1.8-1.8c0.5-1.3,0.3-2.7-0.1-3.5c-0.3-0.5-0.1-1.2,0.4-1.5c1.1-0.7,1.4-2.1,1.3-3.1c-0.1-0.9-0.5-1.6-1.1-1.9
		c-0.5-0.2-0.8-0.8-0.7-1.3c0.1-0.5,0.6-0.9,1.1-0.9c0.5,0,0.8,0,0.8-1.8c0-2.3-0.9-2.9-3.8-2.9H58.6c-0.4,0-0.7-0.2-0.9-0.5
		c-0.2-0.3-0.3-0.7-0.2-1c2.1-7.7,0.5-11.4-1.6-12.3c-1-0.4-2.1-0.2-2.7,0.7v5.2c0,0.8-0.3,1.6-0.5,2.2c-1.3,3.7-3.8,6.9-7.7,10
		c-0.1,0.1-0.3,0.2-0.4,0.4c-1.2,1.5-3.3,2.4-5.3,2.4c-0.6,0-1.2-0.5-1.2-1.2c0-0.6,0.5-1.2,1.2-1.2c1.3,0,2.7-0.6,3.5-1.5
		c0.2-0.3,0.5-0.5,0.7-0.7c3.5-2.8,5.8-5.7,6.9-8.9c0.2-0.5,0.3-1,0.3-1.4v-5.5c0-0.2,0.1-0.4,0.2-0.6c1.2-2,3.7-2.8,5.8-1.8
		c2.9,1.2,5.1,5.5,3.3,13.6h11.1c1.8,0,6.1,0,6.1,5.2c0,0.7,0,2.3-1,3.3c0.4,0.7,0.7,1.5,0.8,2.4c0.2,1.8-0.4,3.4-1.6,4.6
		c0.5,1.4,0.4,3.1-0.1,4.5c-0.5,1.2-1.3,2.2-2.3,2.8c0.1,1.6-0.4,3.3-1.4,4.7C70.3,69.8,68.2,70.8,65.6,70.8z"/>
	<path d="M38,70.8H24c-0.6,0-1.2-0.5-1.2-1.2V46.3c0-0.6,0.5-1.2,1.2-1.2h14c0.6,0,1.2,0.5,1.2,1.2v23.3
		C39.2,70.2,38.7,70.8,38,70.8z M25.2,68.4h11.7v-21H25.2C25.2,47.5,25.2,68.4,25.2,68.4z"/>
</g>
<circle fill="none" stroke="#000000" stroke-width="5" stroke-miterlimit="10" cx="50.1" cy="49.6" r="46"/>
<g>
	<path stroke="#000000" stroke-width="2" stroke-miterlimit="10" d="M72.8,63.8h-7c-0.6,0-1.2-0.5-1.2-1.2s0.5-1.2,1.2-1.2h7
		c0.6,0,1.2,0.5,1.2,1.2S73.4,63.8,72.8,63.8z"/>
	<path stroke="#000000" stroke-width="2" stroke-miterlimit="10" d="M75.1,56.8h-9.3c-0.6,0-1.2-0.5-1.2-1.2s0.5-1.2,1.2-1.2h9.3
		c0.6,0,1.2,0.5,1.2,1.2S75.8,56.8,75.1,56.8z"/>
	<path stroke="#000000" stroke-width="2" stroke-miterlimit="10" d="M75.1,49.8h-9.3c-0.6,0-1.2-0.5-1.2-1.2s0.5-1.2,1.2-1.2h9.3
		c0.6,0,1.2,0.5,1.2,1.2S75.8,49.8,75.1,49.8z"/>
	<path stroke="#000000" stroke-width="2" stroke-miterlimit="10" d="M66.6,70.8H47.5c-1.3,0-2.4-0.4-3.3-1.3
		c-0.7-0.7-1.6-1.1-2.6-1.1h-1.4c-0.6,0-1.2-0.5-1.2-1.2s0.5-1.2,1.2-1.2h1.4c1.6,0,3.1,0.6,4.2,1.7c0.4,0.4,1,0.6,1.7,0.6h19.1
		c2.3,0,3.6-1,4.3-1.9c0.9-1.2,1.1-2.7,0.8-3.6c-0.2-0.6,0.2-1.2,0.8-1.4c1.1-0.4,1.6-1.2,1.8-1.8c0.5-1.3,0.3-2.7-0.1-3.5
		c-0.3-0.5-0.1-1.2,0.4-1.5c1.1-0.7,1.4-2.1,1.3-3.1c-0.1-0.9-0.5-1.6-1.1-1.9c-0.5-0.2-0.8-0.8-0.7-1.3c0.1-0.5,0.6-0.9,1.1-0.9
		c0.5,0,0.8,0,0.8-1.8c0-2.3-0.9-2.9-3.8-2.9H59.6c-0.4,0-0.7-0.2-0.9-0.5c-0.2-0.3-0.3-0.7-0.2-1c2.1-7.7,0.5-11.4-1.6-12.3
		c-1-0.4-2.1-0.2-2.7,0.7v5.2c0,0.8-0.3,1.6-0.5,2.2c-1.3,3.7-3.8,6.9-7.7,10c-0.1,0.1-0.3,0.2-0.4,0.4c-1.2,1.5-3.3,2.4-5.3,2.4
		c-0.6,0-1.2-0.5-1.2-1.2c0-0.6,0.5-1.2,1.2-1.2c1.3,0,2.7-0.6,3.5-1.5c0.2-0.3,0.5-0.5,0.7-0.7c3.5-2.8,5.8-5.7,6.9-8.9
		c0.2-0.5,0.3-1,0.3-1.4v-5.5c0-0.2,0.1-0.4,0.2-0.6c1.2-2,3.7-2.8,5.8-1.8c2.9,1.2,5.1,5.5,3.3,13.6h11.1c1.8,0,6.1,0,6.1,5.2
		c0,0.7,0,2.3-1,3.3c0.4,0.7,0.7,1.5,0.8,2.4c0.2,1.8-0.4,3.4-1.6,4.6c0.5,1.4,0.4,3.1-0.1,4.5c-0.5,1.2-1.3,2.2-2.3,2.8
		c0.1,1.6-0.4,3.3-1.4,4.7C71.3,69.8,69.2,70.8,66.6,70.8z"/>
	<path stroke="#000000" stroke-width="2" stroke-miterlimit="10" d="M39,70.8H25c-0.6,0-1.2-0.5-1.2-1.2V46.3c0-0.6,0.5-1.2,1.2-1.2
		h14c0.6,0,1.2,0.5,1.2,1.2v23.3C40.2,70.2,39.7,70.8,39,70.8z M26.2,68.4h11.7v-21H26.2C26.2,47.5,26.2,68.4,26.2,68.4z"/>
</g>
</svg>
