<?xml version="1.0" encoding="utf-8"?>
<!-- Generator: Adobe Illustrator 17.1.0, SVG Export Plug-In . SVG Version: 6.00 Build 0)  -->
<!DOCTYPE svg PUBLIC "-//W3C//DTD SVG 1.1//EN" "http://www.w3.org/Graphics/SVG/1.1/DTD/svg11.dtd">
<svg version="1.1" id="Layer_1" xmlns="http://www.w3.org/2000/svg" xmlns:xlink="http://www.w3.org/1999/xlink" x="0px" y="0px"
	 viewBox="0 0 100 100" enable-background="new 0 0 100 100" xml:space="preserve">
<g>
	<path stroke="#000000" stroke-width="2.8718" stroke-miterlimit="10" d="M50.2,61.5c-13.2,0-23.9-12.4-23.9-27.7S37,6.1,50.2,6.1
		c13.2,0,23.9,12.4,23.9,27.7S63.4,61.5,50.2,61.5z M50.2,9.8C39.1,9.8,30,20.6,30,33.8s9.1,24,20.2,24s20.2-10.8,20.2-24
		S61.4,9.8,50.2,9.8z"/>
</g>
<g>
	<path stroke="#000000" stroke-width="2.8718" stroke-miterlimit="10" d="M94.4,94.7H5.9V82.2c0-5.4,3.4-10.3,8.6-12.2l22.8-6.3
		v-7.7h3.7v10.5l-25.4,7c-3.5,1.3-6,4.8-6,8.7v8.8h81.2v-8.8c0-3.9-2.5-7.4-6.1-8.7l-25.2-6.9V56.2h3.7v7.6L85.7,70
		c5.3,1.9,8.7,6.8,8.7,12.2V94.7z"/>
</g>
<g>
	<path stroke="#000000" stroke-width="2.8718" stroke-miterlimit="10" d="M66.4,30.5c-0.1,0-0.3,0-0.4,0c-4.2-0.2-9-2.8-12.1-6.3
		c-2.2,2.7-5.2,4.5-9,5.2c-6.7,1.1-14.3-1.4-16.6-3.7l2.6-2.7c1.1,1.1,7.5,3.7,13.4,2.7c3.7-0.6,6.3-2.5,7.9-5.6l1.5-3.1l1.7,3
		c2,3.6,6.9,6.7,10.7,6.9c1.7,0,2.9-0.5,3.6-1.6l3.1,2.1C71.4,29.4,69.2,30.5,66.4,30.5z"/>
</g>
</svg>
