<?xml version="1.0" encoding="utf-8"?>
<!-- Generator: Adobe Illustrator 17.1.0, SVG Export Plug-In . SVG Version: 6.00 Build 0)  -->
<!DOCTYPE svg PUBLIC "-//W3C//DTD SVG 1.1//EN" "http://www.w3.org/Graphics/SVG/1.1/DTD/svg11.dtd">
<svg version="1.1" id="Layer_1" xmlns="http://www.w3.org/2000/svg" xmlns:xlink="http://www.w3.org/1999/xlink" x="0px" y="0px"
	 viewBox="0 0 100 100" enable-background="new 0 0 100 100" xml:space="preserve">
<g id="g1941">
	<path id="path1943" d="M25.6,10.7c-3.4,2.9-12.7,18.1,8.3,50.1C56,94.5,75,91.9,78.7,89.3L63.8,67.2c-3.1,2.1-6-0.9-11.3-7.3
		C49,55.7,45,50.1,41.8,44.1c-2.2-4.2-4.1-8.6-0.9-10.8L25.6,10.7z"/>
	<path id="path1945" d="M86.7,84c1.4-1,1.7-2.8,0.8-4.1l0,0c0,0-11.6-17.2-11.6-17.2c-0.9-1.4-2.8-1.7-4.1-0.8l-6.3,4.2l14.9,22.1
		C80.4,88.2,86.7,84,86.7,84L86.7,84z"/>
	<path id="path1947" d="M48.9,27.9c1.4-1,1.7-2.8,0.8-4.1l0,0c0,0-11.9-17.7-12-17.7c-0.9-1.4-2.8-1.7-4.1-0.8l-6.3,4.2l15.3,22.6
		C42.6,32.1,48.9,27.9,48.9,27.9L48.9,27.9z"/>
</g>
</svg>
