<?xml version="1.0" encoding="utf-8"?>
<!-- Generator: Adobe Illustrator 17.1.0, SVG Export Plug-In . SVG Version: 6.00 Build 0)  -->
<!DOCTYPE svg PUBLIC "-//W3C//DTD SVG 1.1//EN" "http://www.w3.org/Graphics/SVG/1.1/DTD/svg11.dtd">
<svg version="1.1" id="Layer_1" xmlns="http://www.w3.org/2000/svg" xmlns:xlink="http://www.w3.org/1999/xlink" x="0px" y="0px"
	 viewBox="0 0 100 100" enable-background="new 0 0 100 100" xml:space="preserve">
<g>
	<path fill="#020202" d="M90.8,44.7L55.4,9.2c-4-4-10.4-4-14.3,0l0,0L27.6,22.5l3.8,3.8l13.4-13.4c1.9-1.9,5-1.9,6.9,0l35.4,35.4
		c1.9,1.9,1.9,5,0,6.9L76.2,66.1c-1.9,1.9-5,1.9-6.9,0l-0.5-0.5l0.2-0.2c2.9-2.9,2.9-7.7,0-10.6l-5.6-5.6L48.6,64l5.6,5.6
		c2.9,2.9,7.7,2.9,10.6,0l0.2-0.2l0.5,0.5c4,4,10.4,4,14.4,0L90.8,59C94.8,55.1,94.8,48.6,90.8,44.7"/>
	<path fill="#020202" d="M54.2,87L54.2,87c-1.9,1.9-5,1.9-6.9,0L12.4,52.1c-1.9-1.9-1.9-5,0-6.9l10.8-10.8c1.9-1.9,5-1.9,6.9,0
		l0.5,0.5l-0.2,0.2c-2.9,2.9-2.9,7.7,0,10.6l5.6,5.6l2.6-2.6l7.2,7.2l3.7-3.7l-7.2-7.2l2.2-2.2l7.2,7.2l3.7-3.7l-7.2-7.2l2.6-2.6
		L45.3,31c-2.9-2.9-7.7-2.9-10.6,0l-0.2,0.2l-0.5-0.5c-4-4-10.4-4-14.4,0L8.7,41.5c-4,4-4,10.4,0,14.4l34.9,34.9c4,4,10.4,4,14.3,0
		l0,0l13.3-13.2l-3.7-3.7L54.2,87z"/>
</g>
</svg>
