<?xml version="1.0" encoding="utf-8"?>
<!-- Generator: Adobe Illustrator 17.1.0, SVG Export Plug-In . SVG Version: 6.00 Build 0)  -->
<!DOCTYPE svg PUBLIC "-//W3C//DTD SVG 1.1//EN" "http://www.w3.org/Graphics/SVG/1.1/DTD/svg11.dtd">
<svg version="1.1" id="Layer_1" xmlns="http://www.w3.org/2000/svg" xmlns:xlink="http://www.w3.org/1999/xlink" x="0px" y="0px"
	 viewBox="0 0 100 100" enable-background="new 0 0 100 100" xml:space="preserve">
<g>
	<g>
		<path d="M56.6,39.1L54,38.4v-6.3l2.6-0.8l3.5-1.8c-0.7-3.3-1.9-6.4-3.7-9.2l-3.6,0.8l-1.3,0.3l-4.4-4.4l0.3-1.3l0.8-3.6
			c-2.7-1.7-5.8-3-9-3.8c0,0-0.1,0-0.1,0l-2,3.2L36.2,13h-6.1l-0.7-1.6l-2-3.4c0,0-0.1,0.1-0.2,0.1c-3.2,0.7-6.2,2-8.9,3.6l0.8,3.9
			l0.3,1.4l-4.5,4.4l-1.3-0.3l-4-0.8c-1.7,2.7-3,5.6-3.8,8.8l3.7,2.3l1.6,0.8v6.3l-1.6,0.7l-3.9,2.4c0.7,3.2,2,6.1,3.7,8.8l4.3-0.9
			l1.4-0.3l4.5,4.4l-0.3,1.3l-0.9,4.3c2.7,1.7,5.6,2.9,8.8,3.6c0,0,0.1,0,0.2,0l2.2-4.4l0.7-2.5h6.1l0.8,2.5l2.2,4
			c0,0,0.1,0.1,0.1,0.1c3.2-0.7,6.3-2,9-3.7l-1.1-5.4l4.5-4.4l1.3,0.3l3.9,0.8c1.7-2.8,2.7-5.9,3.3-9.2L56.6,39.1z M33,47.3
			c-6.6,0-11.9-5.3-11.9-11.9S26.4,23.6,33,23.6s11.9,5.3,11.9,11.8S39.5,47.3,33,47.3z"/>
	</g>
	<g>
		<path fill="none" stroke="#020202" stroke-width="2" stroke-miterlimit="10" d="M90.1,76.2l2.3,2.3c-1.1,2.5-2.6,4.8-4.4,6.7
			l-3-1.3l-1.3-0.5L79,86.3v1.2l0.3,3.4c-2.5,1-5,1.5-7.8,1.6l-1.3-3.3l-0.4-1.1l-5.1-1l-0.8,0.8l-2.5,2.6c-2.4-1.1-4.6-2.6-6.5-4.4
			l1.4-3.4l0.5-1.2L53.9,77h-1.1l-3.7,0.2c-0.9-2.4-1.5-5-1.5-7.7l3.4-1.3l1.1-0.4l1-5.1l-0.8-0.8l-1.8-1.7l-0.7-0.7
			c0.5-1,1-2,1.6-2.9c0,0,0,0,0,0c0.8-1.3,1.8-2.5,2.9-3.7l0.4,0.2l2,0.9l0.7,0.3l1,0.5l4.4-2.9l0-1.2l0-3.3
			c2.5-0.9,5.1-1.4,7.8-1.5l1.2,3l0.4,1.1l5.2,1l0.8-0.8l2.2-2.2c2.6,1.1,4.9,2.7,6.8,4.6L86,55.3l-0.5,1l2.9,4.4l1.2,0l3.1,0
			c1,2.5,1.5,5.2,1.6,8l-2.9,1.1l-1.1,0.4l-1,5.2L90.1,76.2z"/>
		<circle fill="none" stroke="#020202" stroke-width="2.8448" stroke-miterlimit="10" cx="71" cy="69.2" r="9.9"/>
	</g>
</g>
</svg>
