<?xml version="1.0" encoding="utf-8"?>
<!-- Generator: Adobe Illustrator 17.1.0, SVG Export Plug-In . SVG Version: 6.00 Build 0)  -->
<!DOCTYPE svg PUBLIC "-//W3C//DTD SVG 1.1//EN" "http://www.w3.org/Graphics/SVG/1.1/DTD/svg11.dtd">
<svg version="1.1" id="Layer_1" xmlns="http://www.w3.org/2000/svg" xmlns:xlink="http://www.w3.org/1999/xlink" x="0px" y="0px"
	 viewBox="0 0 100 100" enable-background="new 0 0 100 100" xml:space="preserve">
<g>
	<g>
		<path d="M86,30.1H54.6v5H86c1.8,0,3.3,1.6,3.3,3.5v29.1c0,1.9-1.5,3.6-3.3,3.6H73.3V78L63,71.2H47.7c-1.8,0-3.2-1.7-3.2-3.6V53.1
			h-5v14.5c0,4.6,3.8,8.3,8.2,8.3h13.9L78,87V76h8c4.5,0,8-3.7,8-8.3V38.5C94,33.9,90.5,30.1,86,30.1z"/>
		<g>
			<path d="M51.3,12H13c-4.5,0-8,3.8-8,8.5v29.1c0,4.6,3.5,8.3,8,8.3h8v11.1l16.4-11.1h13.9c4.5,0,8.2-3.7,8.2-8.3V20.4
				C59.5,15.8,55.8,12,51.3,12z M54.6,49.5c0,1.9-1.4,3.6-3.2,3.6H36l-10.3,6.7v-6.7H13c-1.8,0-3.3-1.7-3.3-3.6V20.4
				c0-1.9,1.5-3.5,3.3-3.5h38.3c1.8,0,3.2,1.6,3.2,3.5V49.5z"/>
		</g>
	</g>
</g>
<rect x="63.5" y="45.8" fill="none" width="54.5" height="37.1"/>
<text transform="matrix(1 0 0 1 63.4629 60.8477)" font-family="'Helvetica-Bold'" font-size="20.9397">?</text>
<rect x="22.5" y="21.9" fill="none" width="54.5" height="37.1"/>
<text transform="matrix(1 0 0 1 22.456 36.956)" font-family="'Helvetica-Bold'" font-size="20.9397">...</text>
</svg>
